<?xml version="1.0" standalone="no"?>
<!DOCTYPE svg PUBLIC "-//W3C//DTD SVG 1.1//EN" "http://www.w3.org/Graphics/SVG/1.1/DTD/svg11.dtd" >
<svg xmlns="http://www.w3.org/2000/svg" xmlns:xlink="http://www.w3.org/1999/xlink" version="1.1" viewBox="0 -52 256 256">
  <g transform="matrix(1 0 0 -1 0 204)">
   <path fill="currentColor"
d="M161 133q2 -2 1 -3q0 -1 -2 -1q-12 -4 -29 -15q-4 -2 -1 2q4 3 11 11l5 5q4 5 2 7q-2 3 2 2q6 -5 11 -8zM89 127q1 4 2 0q-1 -9 3 -6q2 0 12 6q4 2 0 -2q-10 -9 -11 -15q-1 -3 -2 -4q-1 0 -3 3q-6 3 -1 18zM104 49v-15q9 4 15 9h1q1 1 4 2h5q2 0 3 -1v-2q-1 -4 -4 -3
q-7 -2 -11 -7q-2 -2 -3 -2t-1 3q-1 1 -9 -3q-1 -1 0 -4q1 -4 1 -7q-1 -9 1 -9q2 -2 12 3q6 3 13 3q2 0 2 -3t-3 -4q-8 -3 -16 -4t-11 0t-3 3t-3 7q-2 1 -1 4q0 4 3 6q0 9 4 24q0 1 1 0zM127 74l-1 -1q8 4 21 -5q3 -3 6 -4q2 -1 1 -5q-1 -1 -1 -2q0 -3 -1 -2q-4 -1 -3 -5
q1 -18 1 -35v-30v-6q0 -1 -2 -2q-1 0 -1 -1q-2 0 -6 3l-5 5q-9 7 -12 12q-1 3 2 1q1 0 3 -1q6 -4 10 -5q5 -2 7 6q0 24 -5 59q-2 17 -12 14q-11 -2 -26 -9q-4 -1 -1 1q8 7 25 12zM133 100q1 1 -1 0q-5 -1 -9 -2q1 -2 5 -3q3 1 5 5zM172 155q-7 0 -19 -2q-13 -3 -28 -7
q-3 -13 -5 -42q5 1 12 3q3 0 8 2q2 2 5 2h7t6 1q3 1 6 0q2 0 2 -2l-1 -1q0 -4 -4 -4q-19 -4 -29 -11q13 -7 29 1q19 12 27 38q1 19 -16 22zM172 201q4 -2 4 -3v-1q1 -2 -6 -4l-2 -1q-7 -2 -13 -7q-37 -27 -81 -47q-8 -4 -4 -11q8 -21 23 -27v-1q4 0 3 -5q1 0 6 2q5 3 8 4
q1 19 2 42q-22 -9 -32 -6q-3 0 0 1q4 1 13 4q10 4 16 6q-1 0 -1 1q-2 4 2 4h7h6q18 5 48 9q5 1 9 -1q6 -4 15 -12q1 -2 3 -3q4 -6 8 -9l3 -5q-3 -6 -7 -5q-5 0 -12 -10q-14 -21 -28 -27q-17 -7 -34 1q-5 -4 -6 -4q-1 1 3 6q-2 0 -3 2l-2 2q-20 -6 -47 -17q-4 -2 -3 1
q-2 2 0 6q0 2 2 2q5 -1 18 4q-9 3 -18 10q-6 3 -2 10q-1 6 -8 17q-3 4 0 6q3 5 11 6q37 15 81 54q2 2 1 4q-1 1 -4 0q-28 -5 -43 -19q-4 -5 -3 -13q1 -4 -1 -5q-2 -2 -4 1q-19 12 -19 28q0 2 1 1q3 -6 11 -9q3 -5 9 -1q31 20 54 22q7 0 14 -3h2z" />
  </g>

</svg>
