<?xml version="1.0" encoding="UTF-8" standalone="no"?>
<!-- Created with Inkscape (http://www.inkscape.org/) -->

<svg
 xmlns:dc="http://purl.org/dc/elements/1.1/"
 xmlns:cc="http://creativecommons.org/ns#"
 xmlns:rdf="http://www.w3.org/1999/02/22-rdf-syntax-ns#"
 xmlns:svg="http://www.w3.org/2000/svg"
 xmlns="http://www.w3.org/2000/svg"
 xmlns:sodipodi="http://sodipodi.sourceforge.net/DTD/sodipodi-0.dtd"
 xmlns:inkscape="http://www.inkscape.org/namespaces/inkscape"
 version="1.1"
 id="svg5091"
 width="513"
 height="512"
 viewBox="0 0 513 512"
 sodipodi:docname="00007.svg"
 inkscape:version="0.92.4 (5da689c313, 2019-01-14)">
<metadata
 id="metadata5097">
<rdf:RDF>
<cc:Work
 rdf:about="">
<dc:format>image/svg+xml</dc:format>
<dc:type
 rdf:resource="http://purl.org/dc/dcmitype/StillImage" />
<dc:title></dc:title>
</cc:Work>
</rdf:RDF>
</metadata>
<defs
 id="defs5095" />
<sodipodi:namedview
 pagecolor="#ffffff"
 bordercolor="#666666"
 borderopacity="1"
 objecttolerance="10"
 gridtolerance="10"
 guidetolerance="10"
 inkscape:pageopacity="0"
 inkscape:pageshadow="2"
 inkscape:window-width="1920"
 inkscape:window-height="1017"
 id="namedview5093"
 showgrid="false"
 inkscape:zoom="1.3037281"
 inkscape:cx="351.81706"
 inkscape:cy="314.92365"
 inkscape:window-x="-8"
 inkscape:window-y="-8"
 inkscape:window-maximized="1"
 inkscape:current-layer="svg5091" />
<path
 style="fill:#000000;stroke:none;stroke-width:1px;stroke-linecap:butt;stroke-linejoin:miter;stroke-opacity:1;fill-opacity:1"
 d="M 44.487803,120.04712 67.498736,128.48446 139.59966,110.84274 144.20184,97.803214 167.97981,106.24056 178.71824,123.11524 149.57106,130.01852 C 149.57106,130.01852 156.47434,126.18336 143.43481,127.71743 130.39528,129.25149 72.867953,152.26242 72.867953,152.26242 L 36.817492,130.01852 Z"
 id="path5644"
 inkscape:connector-curvature="0" />
<path
 style="fill:#000000;stroke:none;stroke-width:1px;stroke-linecap:butt;stroke-linejoin:miter;stroke-opacity:1;fill-opacity:1"
 d="M 44.487803,222.06225 39.118585,242.77209 66.731704,268.85115 108.15138,246.60724 172.58199,215.926 149.57106,203.6535 62.129518,233.56772 Z"
 id="path5646"
 inkscape:connector-curvature="0" />
<path
 style="fill:#000000;stroke:none;stroke-width:1px;stroke-linecap:butt;stroke-linejoin:miter;stroke-opacity:1;fill-opacity:1"
 d="M 42.953741,354.75863 C 39.118585,357.05972 26.846088,373.16737 26.846088,373.16737 L 52.158114,389.27503 82.839357,416.12111 92.810761,380.07065 188.68965,282.65771 200.19511,262.7149 93.577792,342.48613 55.226238,368.56519 Z"
 id="path5648"
 inkscape:connector-curvature="0" />
<path
 style="fill:#000000;stroke:none;stroke-width:1px;stroke-linecap:butt;stroke-linejoin:miter;stroke-opacity:1;fill-opacity:1"
 d="M 86.674513,149.1943 C 86.674513,149.1943 95.111855,158.39867 95.111855,161.46679 95.111855,164.53492 102.01513,334.81582 102.01513,334.81582 L 125.02607,355.52566 143.43481,335.58285 116.58872,305.66864 121.95794,183.7107 127.32716,169.1371 96.645917,139.22289 Z"
 id="path5650"
 inkscape:connector-curvature="0" />
<path
 style="fill:#000000;stroke:none;stroke-width:1px;stroke-linecap:butt;stroke-linejoin:miter;stroke-opacity:1;fill-opacity:1"
 d="M 250.81916,52.54838 C 251.85623,59.234344 284.83441,88.394765 283.60975,97.994972 281.82795,111.9626 246.98401,176.04038 190.99074,202.88647 190.99074,202.88647 210.93355,212.85788 217.0698,205.9546 223.20605,199.05132 304.51134,113.91087 309.11353,111.60977 313.71571,109.30868 324.45415,91.666965 324.45415,91.666965 L 293.00587,57.150566 Z"
 id="path5652"
 inkscape:connector-curvature="0"
 sodipodi:nodetypes="cscssccc" />
<path
 style="fill:#000000;stroke:none;stroke-width:1px;stroke-linecap:butt;stroke-linejoin:miter;stroke-opacity:1;fill-opacity:1"
 d="M 269.99494,182.94366 302.97728,195.98319 C 280.46616,198.67683 384.32075,154.9146 417.07316,157.43988 413.238,164.34316 383.70003,172.12386 395.59628,189.65518 417.26611,162.31747 449.92765,169.32886 477.09334,159.1657 466.86626,149.96133 481.80042,142.24848 439.63243,133.04411 433.34396,141.20909 438.93589,147.96577 428.77038,147.66023 421.10353,147.42979 269.99494,182.94366 269.99494,182.94366 Z"
 id="path5654"
 inkscape:connector-curvature="0"
 sodipodi:nodetypes="ccccccsc" />
<path
 style="fill:#000000;stroke:none;stroke-width:1px;stroke-linecap:butt;stroke-linejoin:miter;stroke-opacity:1;fill-opacity:1"
 d="M 257.72244,232.80068 C 261.28504,237.99225 235.63153,283.11761 241.61479,286.49286 243.33915,296.08133 246.25573,305.19292 251.5862,313.33895 258.22361,320.45713 262.35808,317.56357 267.69385,319.4752 276.17003,304.57865 278.48653,298.48542 283.03447,289.56099 L 290.70478,279.58958 C 284.26909,276.18516 276.11964,279.63579 271.529,268.85115 L 264.62572,232.03365 Z"
 id="path5656"
 inkscape:connector-curvature="0"
 sodipodi:nodetypes="ccccccccc" />
<path
 style="fill:#000000;stroke:none;stroke-width:1px;stroke-linecap:butt;stroke-linejoin:miter;stroke-opacity:1;fill-opacity:1"
 d="M 313.71571,194.44913 335.95962,215.15897 V 340.18504 L 309.11353,331.74769 323.68712,360.89488 332.12446,385.43987 342.09586,394.64424 C 342.09586,394.64424 349.76617,393.11018 348.99914,386.97393 348.23211,380.83768 355.13539,337.88394 355.13539,337.88394 L 357.43649,211.32381 312.94868,177.57445 Z"
 id="path5658"
 inkscape:connector-curvature="0" />
<path
 style="fill:#000000;stroke:none;stroke-width:1px;stroke-linecap:butt;stroke-linejoin:miter;stroke-opacity:1;fill-opacity:1"
 d="M 402.30781,223.59631 409.5946,235.10178 C 435.75496,256.60548 444.90323,280.72642 458.68459,304.13458 L 467.88896,296.46427 470.95709,269.61818 C 471.69528,262.45922 465.74993,255.30027 461.75271,248.14131 445.97316,238.12536 429.15906,228.57967 402.30781,223.59631 Z"
 id="path5660"
 inkscape:connector-curvature="0"
 sodipodi:nodetypes="ccccccc" />
</svg>
