<?xml version="1.0" encoding="UTF-8" standalone="no"?>
<!-- Created with Inkscape (http://www.inkscape.org/) -->

<svg
 xmlns:dc="http://purl.org/dc/elements/1.1/"
 xmlns:cc="http://creativecommons.org/ns#"
 xmlns:rdf="http://www.w3.org/1999/02/22-rdf-syntax-ns#"
 xmlns:svg="http://www.w3.org/2000/svg"
 xmlns="http://www.w3.org/2000/svg"
 xmlns:sodipodi="http://sodipodi.sourceforge.net/DTD/sodipodi-0.dtd"
 xmlns:inkscape="http://www.inkscape.org/namespaces/inkscape"
 version="1.1"
 id="svg12205"
 width="512"
 height="512"
 viewBox="0 0 512 512"
 sodipodi:docname="00002.svg"
 inkscape:version="0.92.4 (5da689c313, 2019-01-14)">
<metadata
 id="metadata12211">
<rdf:RDF>
<cc:Work
 rdf:about="">
<dc:format>image/svg+xml</dc:format>
<dc:type
 rdf:resource="http://purl.org/dc/dcmitype/StillImage" />
<dc:title></dc:title>
</cc:Work>
</rdf:RDF>
</metadata>
<defs
 id="defs12209" />
<sodipodi:namedview
 pagecolor="#ffffff"
 bordercolor="#666666"
 borderopacity="1"
 objecttolerance="10"
 gridtolerance="10"
 guidetolerance="10"
 inkscape:pageopacity="0"
 inkscape:pageshadow="2"
 inkscape:window-width="1920"
 inkscape:window-height="1017"
 id="namedview12207"
 showgrid="false"
 inkscape:zoom="1.3037281"
 inkscape:cx="168.29619"
 inkscape:cy="216.44239"
 inkscape:window-x="-8"
 inkscape:window-y="-8"
 inkscape:window-maximized="1"
 inkscape:current-layer="svg12205" />
<path
 style="fill:#000000;stroke:none;stroke-width:1px;stroke-linecap:butt;stroke-linejoin:miter;stroke-opacity:1;fill-opacity:1"
 d="M 59.061394,100.10431 45.254834,119.28008 52.925145,136.9218 57.527331,159.93273 72.100922,162.23383 C 72.100922,162.23383 128.09419,139.98992 132.69638,136.15477 137.29856,132.31961 158.77543,110.07571 158.77543,110.07571 L 151.10512,100.10431 140.36669,96.269152 67.498736,120.04712 Z"
 id="path12758"
 inkscape:connector-curvature="0" />
<path
 style="fill:#000000;stroke:none;stroke-width:1px;stroke-linecap:butt;stroke-linejoin:miter;stroke-opacity:1;fill-opacity:1"
 d="M 19.942808,266.55005 35.28343,294.16317 48.322958,291.86208 104.31623,266.55005 120.42388,261.94787 130.39528,254.27756 128.09419,247.37428 112.75357,241.23803 102.01513,240.471 42.953741,265.78302 29.914212,261.18084 Z"
 id="path12760"
 inkscape:connector-curvature="0" />
<path
 style="fill:#000000;stroke:none;stroke-width:1px;stroke-linecap:butt;stroke-linejoin:miter;stroke-opacity:1;fill-opacity:1"
 d="M 16.107653,373.16737 13.039528,392.34315 24.544995,406.91674 C 24.544995,406.91674 37.584523,427.62658 40.652648,427.62658 43.720772,427.62658 55.226238,424.55846 55.226238,424.55846 L 65.964673,414.58705 161.84356,297.99833 C 161.84356,297.99833 177.18418,281.89067 177.95121,278.05552 178.71824,274.22036 181.01934,265.78302 181.01934,265.78302 L 112.75357,328.67957 C 112.75357,328.67957 46.021865,377.00253 41.419679,377.76956 36.817492,378.53659 16.107653,373.16737 16.107653,373.16737 Z"
 id="path12762"
 inkscape:connector-curvature="0" />
<path
 style="fill:#000000;stroke:none;stroke-width:1px;stroke-linecap:butt;stroke-linejoin:miter;stroke-opacity:1;fill-opacity:1"
 d="M 72.100922,162.23383 79.771233,189.07991 80.538264,307.2027 67.498736,325.61145 84.373419,356.29269 101.2481,375.46847 C 101.2481,375.46847 95.878886,318.70817 95.878886,312.57192 95.878886,306.43567 95.878886,224.36334 95.878886,224.36334 L 108.91841,192.91507 114.28763,186.77882 C 114.28763,186.77882 102.78217,169.90414 96.645917,165.30195 90.509668,160.69976 72.100922,162.23383 72.100922,162.23383 Z"
 id="path12764"
 inkscape:connector-curvature="0" />
<path
 style="fill:#000000;stroke:none;stroke-width:1px;stroke-linecap:butt;stroke-linejoin:miter;stroke-opacity:1;fill-opacity:1"
 d="M 264.62572,17.26495 274.59713,44.878069 292.23884,65.587908 285.33556,180.64257 294.53994,425.32549 288.40369,441.43314 260.02354,440.66611 281.50041,480.55173 290.70478,495.12532 H 304.51134 C 304.51134,495.12532 309.11353,456.77376 308.3465,450.63751 307.57947,444.50126 298.37509,315.64004 298.37509,315.64004 L 296.84103,192.14804 320.61899,60.985722 325.98821,57.150566 322.15306,47.179162 272.29604,15.730888 267.69385,19.566043 Z"
 id="path12766"
 inkscape:connector-curvature="0" />
<path
 style="fill:#000000;stroke:none;stroke-width:1px;stroke-linecap:butt;stroke-linejoin:miter;stroke-opacity:1;fill-opacity:1"
 d="M 204.03027,164.53492 217.0698,176.80742 217.83683,187.54585 C 217.83683,187.54585 206.33136,201.35241 204.03027,205.18757 201.72918,209.02272 187.92262,221.29522 187.92262,221.29522 187.92262,221.29522 197.89402,225.13037 200.19511,224.36334 202.49621,223.59631 210.16652,214.39194 214.00167,211.32381 217.83683,208.25569 237.01261,199.81835 237.01261,199.81835 237.01261,199.81835 242.38182,195.98319 242.38182,189.84694 242.38182,183.7107 241.61479,179.10851 241.61479,179.10851 L 225.50714,165.30195 C 225.50714,165.30195 219.37089,164.53492 214.00167,163.00086 208.63246,161.46679 204.03027,164.53492 204.03027,164.53492 Z"
 id="path12768"
 inkscape:connector-curvature="0" />
<path
 style="fill:#000000;stroke:none;stroke-width:1px;stroke-linecap:butt;stroke-linejoin:miter;stroke-opacity:1;fill-opacity:1"
 d="M 248.51807,185.24476 263.85869,198.28429 283.03447,201.35241 325.22118,184.47773 356.66945,174.50632 367.40789,168.37007 C 367.40789,168.37007 359.73758,156.86461 355.90242,156.86461 352.06727,156.86461 309.11353,167.60304 309.11353,167.60304 L 269.99494,186.77882 Z"
 id="path12770"
 inkscape:connector-curvature="0" />
<path
 style="fill:#000000;stroke:none;stroke-width:1px;stroke-linecap:butt;stroke-linejoin:miter;stroke-opacity:1;fill-opacity:1"
 d="M 207.86542,255.04459 C 205.56433,258.11271 204.7973,270.38521 204.7973,270.38521 L 222.43901,292.62911 244.68292,293.39614 C 244.68292,293.39614 298.37509,266.55005 302.21025,265.01599 306.0454,263.48193 338.26071,251.20943 342.8629,248.90834 347.46508,246.60724 372.01008,236.63584 372.01008,236.63584 372.01008,236.63584 380.44742,235.10178 374.31117,230.49959 368.17492,225.89741 358.20352,222.06225 358.20352,222.06225 358.20352,222.06225 342.09586,223.59631 337.49368,225.13037 332.89149,226.66444 299.14212,238.93693 299.14212,238.93693 L 231.64339,256.57865 Z"
 id="path12772"
 inkscape:connector-curvature="0" />
<path
 style="fill:#000000;stroke:none;stroke-width:1px;stroke-linecap:butt;stroke-linejoin:miter;stroke-opacity:1;fill-opacity:1"
 d="M 286.86963,285.72583 185.62152,394.64424 101.2481,423.79143 148.037,436.06392 195.59293,413.82002 289.93775,303.36754 345.93102,350.92347 421.10007,413.82002 500.8713,403.08159 511.60973,396.94534 C 511.60973,396.94534 507.77458,386.97393 503.93942,386.97393 500.10427,386.97393 487.06474,387.74096 487.06474,387.74096 L 426.46928,362.42894 296.074,280.35661 Z"
 id="path12774"
 inkscape:connector-curvature="0" />
</svg>
