<?xml version="1.0" encoding="UTF-8" standalone="no"?>
<!-- Created with Inkscape (http://www.inkscape.org/) -->

<svg
 xmlns:dc="http://purl.org/dc/elements/1.1/"
 xmlns:cc="http://creativecommons.org/ns#"
 xmlns:rdf="http://www.w3.org/1999/02/22-rdf-syntax-ns#"
 xmlns:svg="http://www.w3.org/2000/svg"
 xmlns="http://www.w3.org/2000/svg"
 xmlns:sodipodi="http://sodipodi.sourceforge.net/DTD/sodipodi-0.dtd"
 xmlns:inkscape="http://www.inkscape.org/namespaces/inkscape"
 version="1.1"
 id="svg3713"
 width="550"
 height="512"
 viewBox="0 0 550 512"
 sodipodi:docname="00003.svg"
 inkscape:version="0.92.4 (5da689c313, 2019-01-14)">
<metadata
 id="metadata3719">
<rdf:RDF>
<cc:Work
 rdf:about="">
<dc:format>image/svg+xml</dc:format>
<dc:type
 rdf:resource="http://purl.org/dc/dcmitype/StillImage" />
</cc:Work>
</rdf:RDF>
</metadata>
<defs
 id="defs3717" />
<sodipodi:namedview
 pagecolor="#ffffff"
 bordercolor="#666666"
 borderopacity="1"
 objecttolerance="10"
 gridtolerance="10"
 guidetolerance="10"
 inkscape:pageopacity="0"
 inkscape:pageshadow="2"
 inkscape:window-width="1920"
 inkscape:window-height="1017"
 id="namedview3715"
 showgrid="false"
 inkscape:zoom="1.3037281"
 inkscape:cx="256.63658"
 inkscape:cy="262.51818"
 inkscape:window-x="-8"
 inkscape:window-y="-8"
 inkscape:window-maximized="1"
 inkscape:current-layer="svg3713" />
<path
 style="fill:#000000;stroke:none;stroke-width:1px;stroke-linecap:butt;stroke-linejoin:miter;stroke-opacity:1;fill-opacity:1"
 d="M 174.88309,46.412131 C 174.88309,51.781349 190.99074,75.559312 190.99074,75.559312 181.78637,80.672853 172.58199,85.786393 163.37762,90.899934 153.66189,97.291859 143.94617,103.68378 134.23044,110.07571 L 148.80403,112.3768 C 166.19007,104.96217 183.5761,97.547535 200.96214,90.132903 L 222.43901,86.297748 C 219.37089,78.37176 216.30276,70.445772 213.23464,62.519784 207.60975,58.940306 201.98485,55.360827 196.35996,51.781349 190.99074,49.480256 185.62153,47.179162 180.25231,44.878069 Z"
 id="path3723"
 inkscape:connector-curvature="0"
 sodipodi:nodetypes="ccccccccccc" />
<path
 style="fill:#000000;stroke:none;stroke-width:1px;stroke-linecap:butt;stroke-linejoin:miter;stroke-opacity:1;fill-opacity:1"
 d="M 159.45763,155.11864 103.59322,175.72881 21.694915,202.84746 -2.1694915,195.25424 3.2542373,208.27119 24.40678,228.33898 32.542373,231.05085 101.9661,195.79661 159.45763,176.27119 200.13559,161.62712 236.47458,154.0339 257.62712,151.32203 260.33898,145.35593 247.86441,136.67797 236.47458,131.79661 Z"
 id="path3729"
 inkscape:connector-curvature="0" />
<path
 style="fill:#000000;stroke:none;stroke-width:1px;stroke-linecap:butt;stroke-linejoin:miter;stroke-opacity:1;fill-opacity:1"
 d="M 141.01695,119.86441 150.23729,130.71186 H 152.94915 L 159.45763,155.11864 163.25424,181.15254 161.62712,237.55932 156.74576,388.88136 155.11864,412.20339 146.44068,414.37288 154.0339,429.55932 161.08475,440.40678 168.13559,440.94915 175.72881,433.35593 169.22034,390.50847 172.47458,338.44068 177.35593,227.79661 177.89831,214.23729 181.15254,211.52542 192,196.88136 177.89831,182.77966 187.11864,135.59322 184.94915,120.94915 180.0678,117.15254 169.76271,115.52542 Z"
 id="path3731"
 inkscape:connector-curvature="0" />
<path
 style="fill:#000000;stroke:none;stroke-width:1px;stroke-linecap:butt;stroke-linejoin:miter;stroke-opacity:1;fill-opacity:1"
 d="M 161.62712,173.55932 V 192.54237 C 161.62712,192.54237 164.88136,200.13559 157.83051,206.64407 150.77966,213.15254 144.27119,220.74576 144.27119,220.74576 L 130.16949,244.0678 C 130.16949,244.0678 126.37288,248.40678 119.32203,254.37288 112.27119,260.33898 99.254237,280.94915 92.745763,284.20339 86.237288,287.45763 69.423729,304.27119 65.084746,307.52542 60.745763,310.77966 52.067797,317.83051 49.898305,317.83051 47.728814,317.83051 39.050847,316.20339 39.050847,316.20339 L 32,325.42373 20.61017,331.9322 20.067797,337.35593 26.576271,341.15254 34.169492,343.32203 47.728814,335.18644 C 47.728814,335.18644 103.05085,293.42373 105.22034,292.88136 107.38983,292.33898 157.28814,239.18644 157.28814,239.18644 L 181.15254,211.52542 192,196.88136 183.86441,171.9322 Z"
 id="path3733"
 inkscape:connector-curvature="0" />
<path
 style="fill:#000000;stroke:none;stroke-width:1px;stroke-linecap:butt;stroke-linejoin:miter;stroke-opacity:1;fill-opacity:1"
 d="M 177.89831,214.23729 197.9661,220.20339 C 197.9661,220.20339 206.1017,222.91525 208.81356,226.16949 211.52542,229.42373 220.74576,242.44068 220.74576,242.44068 L 222.91525,247.86441 219.11864,253.83051 C 219.11864,253.83051 221.83051,256 215.86441,254.37288 209.89831,252.74576 202.30508,249.49153 202.30508,249.49153 L 198.50847,241.8983 186.57627,234.30508 180.0678,229.9661 Z"
 id="path3737"
 inkscape:connector-curvature="0" />
<path
 style="fill:#000000;stroke:none;stroke-width:1px;stroke-linecap:butt;stroke-linejoin:miter;stroke-opacity:1;fill-opacity:1"
 d="M 301.55932,69.423728 C 301.55932,69.423728 290.16949,72.135593 289.08475,75.38983 288,78.644067 288,74.847457 286.91525,79.18644 285.83051,83.525423 287.45763,81.898305 285.83051,84.067796 284.20339,86.237288 290.16949,85.694915 291.25424,89.491525 292.33898,93.288135 294.50847,94.372881 294.50847,98.711864 294.50847,103.05085 301.01695,113.35593 301.01695,113.35593 L 316.74576,108.47458 324.88136,101.9661 341.15254,97.084745 410.57627,82.440678 424.67797,77.559322 437.15254,80.271186 456.67797,85.152542 466.98305,77.559322 453.42373,62.372881 440.40678,54.237288 436.61017,53.694915 425.76271,58.033898 412.74576,64 410.0339,68.338983 C 410.0339,68.338983 406.77966,72.677966 404.61017,72.677966 402.44068,72.677966 309.15254,88.949152 309.15254,88.949152 Z"
 id="path3741"
 inkscape:connector-curvature="0" />
<path
 style="fill:#000000;stroke:none;stroke-width:1px;stroke-linecap:butt;stroke-linejoin:miter;stroke-opacity:1;fill-opacity:1"
 d="M 276.0678,143.72881 C 276.0678,143.72881 279.32203,145.8983 282.0339,150.77966 284.74576,155.66102 289.62712,154.57627 286.37288,158.37288 283.11864,162.16949 282.0339,170.30508 282.0339,170.30508 L 270.1017,177.35593 261.9661,187.66102 252.20339,192 C 252.20339,192 264.13559,194.71186 270.1017,190.91525 276.0678,187.11864 286.91525,180.61017 286.91525,180.61017 L 304.81356,172.47458 316.20339,167.05085 318.91525,161.62712 306.98305,147.52542 C 306.98305,147.52542 304.27119,141.55932 302.1017,140.47458 299.9322,139.38983 296.13559,136.67797 296.13559,136.67797 L 291.25424,132.88136 C 291.25424,132.88136 291.25424,131.25424 285.28814,133.9661 279.32203,136.67797 276.0678,143.72881 276.0678,143.72881 Z"
 id="path3743"
 inkscape:connector-curvature="0" />
<path
 style="fill:#000000;stroke:none;stroke-width:1px;stroke-linecap:butt;stroke-linejoin:miter;stroke-opacity:1;fill-opacity:1"
 d="M 344.94915,135.59322 341.69492,145.35593 350.91525,149.15254 C 350.91525,149.15254 357.42373,149.15254 357.9661,154.0339 358.50847,158.91525 356.33898,160 360.13559,160.54237 363.9322,161.08475 366.1017,161.08475 368.27119,160.54237 370.44068,160 375.86441,155.11864 375.86441,155.11864 375.86441,155.11864 374.77966,155.11864 375.32203,151.32203 L 375.86441,147.52542 C 375.86441,147.52542 376.40678,145.8983 374.77966,143.72881 373.15254,141.55932 370.98305,139.9322 370.98305,139.9322 370.98305,139.9322 368.81356,139.9322 368.27119,137.76271 367.72881,135.59322 372.0678,138.30508 367.72881,135.05085 363.38983,131.79661 362.84746,130.71186 362.84746,130.71186 362.84746,130.71186 362.84746,127.45763 360.67797,126.91525 358.50847,126.37288 350.91525,124.74576 350.91525,124.74576 Z"
 id="path3745"
 inkscape:connector-curvature="0"
 sodipodi:nodetypes="cccscccccsccccccc" />
<path
 style="fill:#000000;stroke:none;stroke-width:1px;stroke-linecap:butt;stroke-linejoin:miter;stroke-opacity:1;fill-opacity:1"
 d="M 350.91525,124.74576 Z"
 id="path3747"
 inkscape:connector-curvature="0"
 sodipodi:nodetypes="cc" />
<path
 style="fill:#000000;stroke:none;stroke-width:1px;stroke-linecap:butt;stroke-linejoin:miter;stroke-opacity:1;fill-opacity:1"
 d="M 415.92261,113.04796 413.52563,120.71827 C 413.52563,120.71827 411.70394,123.97815 412.66272,124.16991 413.62151,124.36166 414.19679,125.51221 414.96382,126.85452 415.73085,128.19682 416.97727,131.55258 417.55255,132.70313 418.12782,133.85367 419.66188,136.25065 420.0454,136.9218 420.42891,137.59295 422.63413,140.27756 423.30528,141.9075 423.97643,143.53744 424.93522,145.74266 425.70225,146.98908 426.46928,148.23551 428.86626,151.8789 428.86626,151.8789 L 432.12614,155.71406 437.49536,154.37176 C 437.49536,154.37176 442.67282,153.02945 445.16567,153.22121 447.65852,153.41297 453.50713,153.89236 455.13707,154.56351 456.76701,155.23467 459.64338,156.48109 461.65684,156.96049 463.67029,157.43988 464.05381,158.39867 466.3549,157.53576 468.65599,156.67285 467.12193,156.96049 469.5189,156.09758 471.91588,155.23467 475.94279,154.08412 476.51806,153.89236 477.09334,153.7006 476.3263,151.59127 476.3263,151.59127 476.3263,151.59127 474.88812,150.63248 473.73757,150.24896 472.58703,149.86545 472.49115,151.39951 472.01175,149.09842 471.53236,146.79732 471.43648,144.97563 471.43648,144.49623 471.43648,144.01684 472.10763,143.15393 471.53236,142.48277 470.95709,141.81162 469.80654,141.23635 469.5189,139.79817 469.23127,138.35998 465.0126,134.23719 465.0126,134.23719 L 437.3036,131.16907 C 437.3036,131.16907 436.44069,132.51137 430.4962,127.90918 424.55171,123.307 419.566,113.62323 419.566,113.62323 L 417.45667,111.80153 Z"
 id="path3753"
 inkscape:connector-curvature="0" />
<path
 style="fill:#000000;stroke:none;stroke-width:1px;stroke-linecap:butt;stroke-linejoin:miter;stroke-opacity:1;fill-opacity:1"
 d="M 275.74768,223.97983 C 275.74768,223.97983 288.02017,238.1699 289.17072,241.23803 290.32127,244.30615 294.15642,248.52482 294.15642,252.35998 294.15642,256.19513 295.69048,263.09841 295.69048,263.09841 L 294.92345,289.56099 C 294.92345,289.56099 296.84103,293.39614 296.074,303.36754 295.30697,313.33895 294.15642,318.32465 292.23884,324.4609 290.32127,330.59715 281.88392,352.84105 281.11689,356.67621 280.34986,360.51136 288.7872,366.64761 288.7872,366.64761 288.7872,366.64761 289.17072,380.45417 288.40369,382.37175 287.63666,384.28932 295.69048,393.87721 295.69048,395.41127 295.69048,396.94534 303.74431,393.11018 303.74431,393.11018 303.74431,393.11018 306.0454,395.79479 302.97728,380.45417 299.90915,365.11355 299.52564,356.29269 299.90915,353.9916 300.29267,351.6905 302.97728,314.4895 302.97728,314.4895 L 309.88056,283.42474 306.0454,256.57865 308.73001,248.52482 C 308.73001,248.52482 302.97728,238.1699 302.21025,233.1842 301.44322,228.1985 279.19932,221.67873 279.19932,221.67873 Z"
 id="path3755"
 inkscape:connector-curvature="0" />
<path
 style="fill:#000000;stroke:none;stroke-width:1px;stroke-linecap:butt;stroke-linejoin:miter;stroke-opacity:1;fill-opacity:1"
 d="M 310.64759,199.43483 C 310.64759,199.43483 309.88056,202.11944 310.64759,204.42053 311.08753,207.26678 313.40044,213.06373 317.35912,214.00843 320.45528,223.51004 324.29852,218.70673 323.3036,220.14467 322.21252,221.72159 331.35743,218.99413 333.65852,218.22709 335.95962,217.46006 347.8486,212.85788 347.8486,212.85788 L 375.0782,206.33811 C 381.00414,204.028 380.91262,206.26542 388.05698,204.00571 390.00587,203.38928 392.49322,202.43821 395.78804,200.96889 398.51429,203.62005 401.23867,203.93833 403.68482,204.0511 405.97388,204.15663 408.0193,204.08219 409.5946,205.57108 409.5946,205.57108 421.8671,331.36418 421.10007,334.04879 420.33303,336.7334 421.48358,386.2069 421.48358,387.74096 421.48358,389.27503 412.66272,407.30026 412.66272,407.30026 L 421.10007,411.13541 438.35827,432.22877 C 438.35827,432.22877 442.19342,434.14634 442.96045,432.61228 443.72748,431.07822 445.26155,428.39361 446.02858,425.709 446.79561,423.02439 447.94615,420.33979 447.17912,415.35408 446.41209,410.36838 434.13959,335.96637 434.13959,335.96637 L 432.60553,263.09841 437.59123,226.66444 C 442.00731,218.22992 446.61451,209.89096 455.04119,203.46174 444.75019,195.85535 434.45919,188.24896 424.16819,180.64257 424.16819,180.64257 418.41546,175.65687 415.73085,174.88984 413.04624,174.12281 405.75944,170.28765 405.75944,170.28765 L 394.63749,184.86124 Z"
 id="path3757"
 inkscape:connector-curvature="0"
 sodipodi:nodetypes="cccscccscsccscccssscccccsccc" />
<path
 style="fill:#000000;stroke:none;stroke-width:1px;stroke-linecap:butt;stroke-linejoin:miter;stroke-opacity:1;fill-opacity:1"
 d="M 255.80487,263.86544 C 254.2708,265.01599 246.98401,271.91927 246.98401,271.91927 L 255.80487,286.87638 258.10596,297.2313 H 262.32463 L 271.529,291.47856 286.10259,285.34231 341.32883,272.30279 352.8343,270.38521 398.08913,261.56435 407.29351,260.79732 417.26491,267.31708 C 417.26491,267.31708 437.59123,259.64677 439.1253,258.87974 440.65936,258.11271 467.12193,259.26326 467.12193,259.26326 467.12193,259.26326 475.55927,258.87974 478.6274,256.96216 481.69552,255.04459 482.84607,252.74349 483.6131,253.12701 484.38013,253.51052 479.39443,246.99076 479.39443,246.99076 479.39443,246.99076 477.47685,241.23803 468.27248,240.85451 459.0681,240.471 432.60553,251.59295 432.60553,251.59295 L 411.89569,252.74349 C 411.89569,252.74349 382.74851,253.51052 380.0639,254.27756 377.37929,255.04459 316.01681,263.86544 316.01681,263.86544 L 283.03447,268.85115 H 268.8444 Z"
 id="path3763"
 inkscape:connector-curvature="0" />
<path
 style="fill:#000000;stroke:none;stroke-width:1px;stroke-linecap:butt;stroke-linejoin:miter;stroke-opacity:1;fill-opacity:1"
 d="M 204.41378,336.7334 C 201.72918,338.65097 199.04457,344.40371 199.04457,344.40371 L 210.16652,359.74433 222.0555,365.88058 C 222.0555,365.88058 226.27417,366.26409 228.57526,365.49706 230.87636,364.73003 283.8015,346.32129 283.8015,346.32129 L 350.14969,333.66527 401.92429,327.14551 458.68459,330.98066 C 458.68459,330.98066 523.49872,357.82675 531.16903,357.82675 538.83934,357.82675 546.50965,351.6905 546.50965,351.6905 546.50965,351.6905 543.05801,331.36418 526.95036,326.76199 510.8427,322.15981 494.73505,317.94114 494.73505,317.94114 H 381.98148 L 220.52144,342.48613 Z"
 id="path3765"
 inkscape:connector-curvature="0" />
<path
 style="fill:#000000;stroke:none;stroke-width:1px;stroke-linecap:butt;stroke-linejoin:miter;stroke-opacity:1;fill-opacity:1"
 d="M 348.99914,195.98319 352.8343,220.52819 354.36836,253.89404 353.60133,309.12028 C 349.29688,317.77769 349.81505,327.23888 348.23211,336.34988 352.31248,346.22485 359.14728,347.8365 365.1068,352.07402 366.69051,353.12983 378.39189,332.16708 375.46172,328.67957 374.47489,327.50504 372.39359,277.672 373.16062,275.75443 371.35189,273.19291 378.23501,262.73706 379.68039,263.09841 L 372.77711,192.53155 Z"
 id="path3767"
 inkscape:connector-curvature="0"
 sodipodi:nodetypes="ccccccscccc" />
</svg>
