<?xml version="1.0" encoding="UTF-8" standalone="no"?>
<!-- Created with Inkscape (http://www.inkscape.org/) -->

<svg
 xmlns:dc="http://purl.org/dc/elements/1.1/"
 xmlns:cc="http://creativecommons.org/ns#"
 xmlns:rdf="http://www.w3.org/1999/02/22-rdf-syntax-ns#"
 xmlns:svg="http://www.w3.org/2000/svg"
 xmlns="http://www.w3.org/2000/svg"
 xmlns:sodipodi="http://sodipodi.sourceforge.net/DTD/sodipodi-0.dtd"
 xmlns:inkscape="http://www.inkscape.org/namespaces/inkscape"
 version="1.1"
 id="svg6806"
 width="512"
 height="512"
 viewBox="0 0 512 512"
 sodipodi:docname="00010.svg"
 inkscape:version="0.92.4 (5da689c313, 2019-01-14)">
<metadata
 id="metadata6812">
<rdf:RDF>
<cc:Work
 rdf:about="">
<dc:format>image/svg+xml</dc:format>
<dc:type
 rdf:resource="http://purl.org/dc/dcmitype/StillImage" />
<dc:title></dc:title>
</cc:Work>
</rdf:RDF>
</metadata>
<defs
 id="defs6810" />
<sodipodi:namedview
 pagecolor="#ffffff"
 bordercolor="#666666"
 borderopacity="1"
 objecttolerance="10"
 gridtolerance="10"
 guidetolerance="10"
 inkscape:pageopacity="0"
 inkscape:pageshadow="2"
 inkscape:window-width="1920"
 inkscape:window-height="1017"
 id="namedview6808"
 showgrid="false"
 inkscape:zoom="1.3037281"
 inkscape:cx="199.1045"
 inkscape:cy="226.02768"
 inkscape:window-x="-8"
 inkscape:window-y="-8"
 inkscape:window-maximized="1"
 inkscape:current-layer="svg6806" />
<path
 style="fill:#000000;stroke:none;stroke-width:1px;stroke-linecap:butt;stroke-linejoin:miter;stroke-opacity:1;fill-opacity:1"
 d="M 151.10512,44.878069 170.2809,65.587908 198.66105,149.96133 210.16652,163.00086 213.23464,156.86461 208.63246,87.064779 V 70.190095 L 184.08746,44.878069 153.40622,37.974789 Z"
 id="path7359"
 inkscape:connector-curvature="0" />
<path
 style="fill:#000000;stroke:none;stroke-width:1px;stroke-linecap:butt;stroke-linejoin:miter;stroke-opacity:1;fill-opacity:1"
 d="M 210.16652,106.24056 C 197.12699,107.77462 164.91168,111.60977 164.91168,111.60977 164.91168,111.60977 155.70731,112.3768 149.57106,114.6779 143.43481,116.97899 126.56013,110.07571 126.56013,110.07571 L 121.95794,119.28008 C 121.95794,119.28008 127.32716,136.9218 130.39528,139.22289 133.46341,141.52399 141.90075,156.09758 141.90075,156.09758 152.53301,155.4945 165.52699,158.82759 167.97981,144.59211 L 189.45668,127.71743 206.33136,126.18336 Z"
 id="path7361"
 inkscape:connector-curvature="0"
 sodipodi:nodetypes="cccccsccccc" />
<path
 style="fill:#000000;stroke:none;stroke-width:1px;stroke-linecap:butt;stroke-linejoin:miter;stroke-opacity:1;fill-opacity:1"
 d="M 269.99494,18.799012 293.49373,39.059535 C 273.59482,86.361979 256.90348,139.16313 227.52906,170.22185 L 253.12026,158.39867 276.89822,127.71743 322.92009,41.042914 329.05634,32.605572 285.33556,9.5946391 Z"
 id="path7363"
 inkscape:connector-curvature="0"
 sodipodi:nodetypes="ccccccccc" />
<path
 style="fill:#000000;stroke:none;stroke-width:1px;stroke-linecap:butt;stroke-linejoin:miter;stroke-opacity:1;fill-opacity:1"
 d="M 246.98401,90.132903 291.47181,95.502121 341.96426,73.970739 368.94195,78.627437 370.47601,90.899934 290.70478,119.28008 261.5576,110.84274 Z"
 id="path7365"
 inkscape:connector-curvature="0"
 sodipodi:nodetypes="cccccccc" />
<path
 style="fill:#000000;stroke:none;stroke-width:1px;stroke-linecap:butt;stroke-linejoin:miter;stroke-opacity:1;fill-opacity:1"
 d="M 141.90075,254.27756 314.48274,163.00086 302.97728,146.12617 317.55087,145.35914 333.65852,160.69976 332.89149,173.73929 187.92262,245.07318 155.70731,259.64677 Z"
 id="path7367"
 inkscape:connector-curvature="0" />
<path
 style="fill:#000000;stroke:none;stroke-width:1px;stroke-linecap:butt;stroke-linejoin:miter;stroke-opacity:1;fill-opacity:1"
 d="M 162.61059,233.56772 155.70731,259.64677 166.44575,287.25989 184.08746,300.29942 194.05886,307.96973 204.03027,317.94114 C 204.03027,317.94114 217.0698,309.50379 216.30277,304.90161 215.53573,300.29942 214.7687,297.2313 214.7687,297.2313 214.7687,297.2313 214.00167,301.83348 209.39949,294.9302 204.7973,288.02692 202.49621,280.35661 202.49621,280.35661 L 172.58199,238.1699 Z"
 id="path7369"
 inkscape:connector-curvature="0" />
<path
 style="fill:#000000;stroke:none;stroke-width:1px;stroke-linecap:butt;stroke-linejoin:miter;stroke-opacity:1;fill-opacity:1"
 d="M 228.57526,228.96553 249.2851,267.31708 247.75104,285.72583 214.7687,297.2313 253.12026,309.50379 266.92682,313.33895 C 266.92682,313.33895 278.43228,295.69723 278.43228,292.62911 278.43228,289.56099 277.73573,286.1366 280.03683,283.06847 282.33792,280.00035 286.10259,258.87974 286.10259,258.87974 L 276.13119,238.93693 238.54667,215.15897 Z"
 id="path7371"
 inkscape:connector-curvature="0"
 sodipodi:nodetypes="ccccccsscccc" />
<path
 style="fill:#000000;stroke:none;stroke-width:1px;stroke-linecap:butt;stroke-linejoin:miter;stroke-opacity:1;fill-opacity:1"
 d="M 319.85196,205.18757 343.62993,232.03365 309.88056,273.45333 C 309.88056,273.45333 276.89822,283.42474 273.8301,285.72583 270.76197,288.02692 214.7687,297.2313 214.7687,297.2313 L 230.10933,310.27082 C 230.10933,310.27082 295.30697,304.13458 301.44322,297.2313 307.57947,290.32802 370.47601,248.14131 370.47601,248.14131 L 383.51554,248.90834 386.58367,229.73256 C 386.58367,229.73256 386.58367,224.36334 382.74851,219.76116 378.91336,215.15897 368.17492,200.58538 368.17492,200.58538 Z"
 id="path7373"
 inkscape:connector-curvature="0" />
<path
 style="fill:#000000;stroke:none;stroke-width:1px;stroke-linecap:butt;stroke-linejoin:miter;stroke-opacity:1;fill-opacity:1"
 d="M 17.641715,351.6905 C 26.760941,375.85189 50.671883,383.37261 70.56686,395.41128 L 140.36669,356.29269 345.16399,308.73676 421.8671,317.1741 C 421.8671,317.1741 439.50881,327.14551 442.57694,326.37848 445.64506,325.61145 449.48022,318.70817 450.24725,315.64004 451.01428,312.57192 445.64506,302.60051 445.64506,302.60051 L 405.75944,288.02692 389.65179,278.82255 373.54414,281.89067 C 373.54414,281.89067 377.37929,290.32802 374.31117,291.09505 371.24305,291.86208 143.43481,332.51473 143.43481,332.51473 L 55.993269,355.52566 Z"
 id="path7375"
 inkscape:connector-curvature="0"
 sodipodi:nodetypes="cccccssccccsccc" />
<path
 style="fill:#000000;stroke:none;stroke-width:1px;stroke-linecap:butt;stroke-linejoin:miter;stroke-opacity:1;fill-opacity:1"
 d="M 276.13119,238.93693 260.79057,242.77209 261.5576,327.14551 266.15979,449.10345 245.44995,462.91001 195.59293,448.33642 243.14885,486.68797 255.42135,508.93188 273.8301,506.63078 286.86963,469.04626 280.73338,319.4752 Z"
 id="path7377"
 inkscape:connector-curvature="0" />
<path
 style="fill:#000000;stroke:none;stroke-width:1px;stroke-linecap:butt;stroke-linejoin:miter;stroke-opacity:1;fill-opacity:1"
 d="M 164.14465,357.82675 164.91168,377.76956 C 148.31187,389.72712 145.91132,409.42973 144.96888,429.92767 145.17982,464.51014 160.14255,454.95941 170.2809,459.84189 L 171.81496,452.17158 C 171.81496,452.17158 182.5534,415.35408 181.78637,412.28596 181.01934,409.21783 174.88309,357.05972 174.88309,357.05972 L 159.54247,359.36081 Z"
 id="path7379"
 inkscape:connector-curvature="0"
 sodipodi:nodetypes="cccccsccc" />
<path
 style="fill:#000000;stroke:none;stroke-width:1px;stroke-linecap:butt;stroke-linejoin:miter;stroke-opacity:1;fill-opacity:1"
 d="M 347.46508,347.08832 349.76617,362.42894 388.11773,455.2397 396.55507,458.30782 401.92429,448.33642 404.22538,393.87721 Z"
 id="path7381"
 inkscape:connector-curvature="0" />
</svg>
