<?xml version="1.0" encoding="UTF-8" standalone="no"?>
<!-- Created with Inkscape (http://www.inkscape.org/) -->

<svg
 xmlns:dc="http://purl.org/dc/elements/1.1/"
 xmlns:cc="http://creativecommons.org/ns#"
 xmlns:rdf="http://www.w3.org/1999/02/22-rdf-syntax-ns#"
 xmlns:svg="http://www.w3.org/2000/svg"
 xmlns="http://www.w3.org/2000/svg"
 xmlns:sodipodi="http://sodipodi.sourceforge.net/DTD/sodipodi-0.dtd"
 xmlns:inkscape="http://www.inkscape.org/namespaces/inkscape"
 version="1.1"
 id="svg9214"
 width="512"
 height="512"
 viewBox="0 0 512 512"
 sodipodi:docname="00014.svg"
 inkscape:version="0.92.4 (5da689c313, 2019-01-14)">
<metadata
 id="metadata9220">
<rdf:RDF>
<cc:Work
 rdf:about="">
<dc:format>image/svg+xml</dc:format>
<dc:type
 rdf:resource="http://purl.org/dc/dcmitype/StillImage" />
<dc:title></dc:title>
</cc:Work>
</rdf:RDF>
</metadata>
<defs
 id="defs9218" />
<sodipodi:namedview
 pagecolor="#ffffff"
 bordercolor="#666666"
 borderopacity="1"
 objecttolerance="10"
 gridtolerance="10"
 guidetolerance="10"
 inkscape:pageopacity="0"
 inkscape:pageshadow="2"
 inkscape:window-width="1920"
 inkscape:window-height="1017"
 id="namedview9216"
 showgrid="false"
 inkscape:zoom="1.3037281"
 inkscape:cx="303.3409"
 inkscape:cy="211.84635"
 inkscape:window-x="-8"
 inkscape:window-y="-8"
 inkscape:window-maximized="1"
 inkscape:current-layer="svg9214" />
<path
 style="fill:#000000;stroke:none;stroke-width:1px;stroke-linecap:butt;stroke-linejoin:miter;stroke-opacity:1;fill-opacity:1"
 d="M 88.975606,80.161499 105.08326,97.036183 98.94701,111.60977 92.04373,126.18336 120.42388,113.91087 143.43481,99.337276 147.26997,90.132903 135.7645,77.860406 113.5206,70.190095 Z"
 id="path9767"
 inkscape:connector-curvature="0" />
<path
 style="fill:#000000;stroke:none;stroke-width:1px;stroke-linecap:butt;stroke-linejoin:miter;stroke-opacity:1;fill-opacity:1"
 d="M 39.885616,159.1657 32.215306,173.73929 52.925145,185.24476 48.322958,228.96553 62.129518,218.99413 79.004202,216.69303 C 79.004202,216.69303 90.509668,208.25569 92.04373,204.42053 93.577792,200.58538 93.577792,193.6821 93.577792,193.6821 93.577792,193.6821 95.878886,184.47773 87.441544,178.34148 79.004202,172.20523 39.885616,159.1657 39.885616,159.1657 Z"
 id="path9769"
 inkscape:connector-curvature="0" />
<path
 style="fill:#000000;stroke:none;stroke-width:1px;stroke-linecap:butt;stroke-linejoin:miter;stroke-opacity:1;fill-opacity:1"
 d="M 102.01513,257.34568 89.742637,304.13458 63.66358,330.98066 46.788896,324.84442 48.322958,353.9916 76.703109,396.17831 87.441544,388.508 110.45248,258.11271 102.78217,260.4138 Z"
 id="path9771"
 inkscape:connector-curvature="0" />
<path
 style="fill:#000000;stroke:none;stroke-width:1px;stroke-linecap:butt;stroke-linejoin:miter;stroke-opacity:1;fill-opacity:1"
 d="M 213.23464,61.752753 229.34229,83.229623 212.46761,133.08664 197.89402,136.15477 192.5248,133.08664 187.92262,153.79648 200.19511,152.26242 230.87636,119.28008 250.05213,95.502121 C 250.05213,95.502121 255.42135,81.695561 248.51807,78.627437 241.61479,75.559312 213.23464,61.752753 213.23464,61.752753 Z"
 id="path9773"
 inkscape:connector-curvature="0" />
<path
 style="fill:#000000;stroke:none;stroke-width:1px;stroke-linecap:butt;stroke-linejoin:miter;stroke-opacity:1;fill-opacity:1"
 d="M 225.50714,100.87134 244.68292,109.30868 296.074,97.036183 363.57273,72.491188 379.68039,77.093375 375.84523,83.229623 267.69385,120.04712 220.13792,115.44493 Z"
 id="path9775"
 inkscape:connector-curvature="0" />
<path
 style="fill:#000000;stroke:none;stroke-width:1px;stroke-linecap:butt;stroke-linejoin:miter;stroke-opacity:1;fill-opacity:1"
 d="M 249.2851,155.33055 255.42135,184.47773 240.84776,248.14131 224.74011,284.19177 C 224.74011,284.19177 217.0698,288.79395 205.56433,288.79395 194.05886,288.79395 190.22371,303.36754 190.22371,303.36754 L 207.86542,319.4752 C 207.86542,319.4752 239.3137,310.27082 243.91589,310.27082 248.51807,310.27082 296.84103,313.33895 296.84103,313.33895 L 393.48695,347.85535 408.06054,354.75863 H 422.63413 V 343.25316 C 422.63413,343.25316 422.63413,333.28176 416.49788,330.98066 410.36163,328.67957 400.39023,325.61145 400.39023,325.61145 L 313.71571,307.96973 242.38182,298.76536 230.87636,294.16317 C 230.87636,294.16317 256.95541,267.31708 256.18838,261.18084 255.42135,255.04459 277.66525,182.17663 277.66525,182.17663 Z"
 id="path9779"
 inkscape:connector-curvature="0" />
<path
 style="fill:#000000;stroke:none;stroke-width:1px;stroke-linecap:butt;stroke-linejoin:miter;stroke-opacity:1;fill-opacity:1"
 d="M 277.66525,143.05805 293.77291,169.90414 C 293.77291,169.90414 293.00587,171.4382 298.37509,170.67117 303.74431,169.90414 335.19258,143.82508 335.19258,143.82508 L 364.33977,144.59211 374.31117,147.66023 335.95962,393.11018 304.51134,382.37175 263.85869,362.42894 299.90915,404.61565 315.24978,431.46174 C 315.24978,431.46174 334.42555,441.43314 335.19258,437.59798 335.95962,433.76283 346.69805,416.88815 348.99914,400.01346 351.30024,383.13878 366.64086,340.18504 368.17492,326.37848 369.70898,312.57192 392.71992,177.57445 392.71992,177.57445 L 404.22538,156.86461 368.94195,122.34821 293.77291,145.35914 Z"
 id="path9781"
 inkscape:connector-curvature="0" />
<path
 style="fill:#000000;stroke:none;stroke-width:1px;stroke-linecap:butt;stroke-linejoin:miter;stroke-opacity:1;fill-opacity:1"
 d="M 283.03447,192.91507 301.44322,208.25569 354.36836,185.24476 357.43649,174.50632 339.79477,172.20523 Z"
 id="path9783"
 inkscape:connector-curvature="0" />
<path
 style="fill:#000000;stroke:none;stroke-width:1px;stroke-linecap:butt;stroke-linejoin:miter;stroke-opacity:1;fill-opacity:1"
 d="M 278.43228,267.31708 316.01681,281.12364 332.89149,283.42474 336.72665,268.08411 320.61899,258.87974 Z"
 id="path9785"
 inkscape:connector-curvature="0" />
<path
 style="fill:#000000;stroke:none;stroke-width:1px;stroke-linecap:butt;stroke-linejoin:miter;stroke-opacity:1;fill-opacity:1"
 d="M 128.86122,248.90834 C 128.09419,255.04459 129.62825,259.64677 129.62825,259.64677 L 173.34903,278.82255 224.74011,257.34568 320.61899,233.56772 452.54834,242.77209 490.13286,260.4138 499.33724,248.90834 493.20099,236.63584 458.68459,218.22709 443.34397,224.36334 368.94195,214.39194 306.81243,227.43147 159.54247,251.97646 Z"
 id="path9787"
 inkscape:connector-curvature="0" />
</svg>
