<?xml version="1.0" encoding="UTF-8" standalone="no"?>
<!-- Created with Inkscape (http://www.inkscape.org/) -->

<svg
 xmlns:dc="http://purl.org/dc/elements/1.1/"
 xmlns:cc="http://creativecommons.org/ns#"
 xmlns:rdf="http://www.w3.org/1999/02/22-rdf-syntax-ns#"
 xmlns:svg="http://www.w3.org/2000/svg"
 xmlns="http://www.w3.org/2000/svg"
 xmlns:sodipodi="http://sodipodi.sourceforge.net/DTD/sodipodi-0.dtd"
 xmlns:inkscape="http://www.inkscape.org/namespaces/inkscape"
 version="1.1"
 id="svg10380"
 width="511"
 height="512"
 viewBox="0 0 511 512"
 sodipodi:docname="00016.svg"
 inkscape:version="0.92.4 (5da689c313, 2019-01-14)">
<metadata
 id="metadata10386">
<rdf:RDF>
<cc:Work
 rdf:about="">
<dc:format>image/svg+xml</dc:format>
<dc:type
 rdf:resource="http://purl.org/dc/dcmitype/StillImage" />
<dc:title></dc:title>
</cc:Work>
</rdf:RDF>
</metadata>
<defs
 id="defs10384" />
<sodipodi:namedview
 pagecolor="#ffffff"
 bordercolor="#666666"
 borderopacity="1"
 objecttolerance="10"
 gridtolerance="10"
 guidetolerance="10"
 inkscape:pageopacity="0"
 inkscape:pageshadow="2"
 inkscape:window-width="1920"
 inkscape:window-height="1017"
 id="namedview10382"
 showgrid="false"
 inkscape:zoom="1.3037281"
 inkscape:cx="303.51944"
 inkscape:cy="300.28846"
 inkscape:window-x="-8"
 inkscape:window-y="-8"
 inkscape:window-maximized="1"
 inkscape:current-layer="svg10380" />
<path
 style="fill:#000000;stroke:none;stroke-width:1px;stroke-linecap:butt;stroke-linejoin:miter;stroke-opacity:1;fill-opacity:1"
 d="M 47.555927,42.576976 82.072326,67.121971 96.645917,78.627437 82.839357,91.666965 121.95794,97.803214 C 121.95794,97.803214 128.86122,100.87134 126.56013,88.598841 124.25904,76.326344 119.65685,60.218691 119.65685,60.218691 L 103.5492,48.713224 74.402015,35.673696 Z"
 id="path10933"
 inkscape:connector-curvature="0" />
<path
 style="fill:#000000;stroke:none;stroke-width:1px;stroke-linecap:butt;stroke-linejoin:miter;stroke-opacity:1;fill-opacity:1"
 d="M 26.079057,159.1657 54.459207,183.7107 55.993269,218.22709 72.867953,202.88647 97.412948,210.55678 C 97.412948,210.55678 95.111855,183.7107 93.577792,178.34148 92.04373,172.97226 82.839357,165.30195 82.839357,165.30195 82.839357,165.30195 79.771233,166.06898 75.169046,165.30195 70.56686,164.53492 55.226238,158.39867 45.254834,154.56351 35.28343,150.72836 29.914212,149.1943 29.914212,149.1943 Z"
 id="path10935"
 inkscape:connector-curvature="0" />
<path
 style="fill:#000000;stroke:none;stroke-width:1px;stroke-linecap:butt;stroke-linejoin:miter;stroke-opacity:1;fill-opacity:1"
 d="M 120.42388,225.89741 75.936077,339.41801 62.896549,327.91254 55.226238,320.24223 48.322958,346.32129 96.645917,386.2069 H 117.35576 L 113.5206,353.9916 128.09419,311.03786 103.5492,343.25316 98.179979,345.55425 92.04373,323.31035 119.65685,251.97646 Z"
 id="path10937"
 inkscape:connector-curvature="0" />
<path
 style="fill:#000000;stroke:none;stroke-width:1px;stroke-linecap:butt;stroke-linejoin:miter;stroke-opacity:1;fill-opacity:1"
 d="M 128.86122,117.74602 C 128.86122,117.74602 120.42388,125.41633 116.58872,126.18336 112.75357,126.9504 108.15138,139.22289 108.15138,139.22289 L 126.56013,163.76789 142.66778,155.33055 C 142.66778,155.33055 220.13792,120.81415 223.20605,118.51305 226.27417,116.21196 396.55507,100.10431 396.55507,100.10431 396.55507,100.10431 406.52648,115.44493 411.12866,113.14384 415.73085,110.84274 428.77038,110.07571 428.77038,110.07571 L 467.88896,126.18336 483.22958,124.6493 479.39443,107.00759 425.70225,76.326344 410.36163,88.598841 211.70058,109.30868 136.53153,129.25149 Z"
 id="path10939"
 inkscape:connector-curvature="0" />
<path
 style="fill:#000000;stroke:none;stroke-width:1px;stroke-linecap:butt;stroke-linejoin:miter;stroke-opacity:1;fill-opacity:1"
 d="M 154.94028,159.1657 147.26997,176.80742 158.77543,192.91507 172.58199,198.28429 C 172.58199,198.28429 191.75777,232.03365 191.75777,235.10178 191.75777,238.1699 202.49621,278.82255 202.49621,278.82255 202.49621,278.82255 218.60386,278.05552 218.60386,271.91927 218.60386,265.78302 216.30277,245.84021 212.46761,235.86881 208.63246,225.89741 205.56433,212.85788 205.56433,212.85788 205.56433,212.85788 210.16652,208.25569 205.56433,202.11944 200.96214,195.98319 198.66105,192.91507 198.66105,192.91507 L 178.71824,184.47773 C 178.71824,184.47773 171.04793,183.7107 169.51387,178.34148 167.97981,172.97226 170.2809,166.83601 166.44575,163.00086 162.61059,159.1657 154.94028,159.1657 154.94028,159.1657 Z"
 id="path10941"
 inkscape:connector-curvature="0" />
<path
 style="fill:#000000;stroke:none;stroke-width:1px;stroke-linecap:butt;stroke-linejoin:miter;stroke-opacity:1;fill-opacity:1"
 d="M 189.45668,166.06898 217.83683,188.31288 235.47854,197.51726 C 235.47854,197.51726 253.88729,182.17663 256.95541,180.64257 260.02354,179.10851 260.79057,200.58538 260.79057,200.58538 L 250.81916,245.84021 261.5576,248.90834 280.73338,202.11944 283.8015,170.67117 308.3465,158.39867 269.99494,136.15477 254.65432,141.52399 245.44995,165.30195 220.13792,168.37007 196.35996,153.79648 Z"
 id="path10945"
 inkscape:connector-curvature="0" />
<path
 style="fill:#000000;stroke:none;stroke-width:1px;stroke-linecap:butt;stroke-linejoin:miter;stroke-opacity:1;fill-opacity:1"
 d="M 186.38855,236.63584 220.13792,230.49959 C 220.13792,230.49959 238.54667,228.96553 241.61479,227.43147 244.68292,225.89741 252.35323,217.46006 255.42135,217.46006 258.48948,217.46006 299.14212,229.73256 299.14212,229.73256 L 298.37509,241.23803 274.59713,249.67537 250.81916,245.84021 221.67198,262.7149 202.49621,278.82255 Z"
 id="path10947"
 inkscape:connector-curvature="0" />
<path
 style="fill:#000000;stroke:none;stroke-width:1px;stroke-linecap:butt;stroke-linejoin:miter;stroke-opacity:1;fill-opacity:1"
 d="M 321.38602,107.77462 335.19258,127.71743 340.5618,360.89488 315.24978,368.56519 284.56853,361.66191 C 284.56853,361.66191 299.14212,375.46847 303.74431,380.07065 308.3465,384.67284 310.64759,383.90581 318.3179,392.34315 325.98821,400.78049 330.5904,419.95627 330.5904,419.95627 330.5904,419.95627 330.5904,421.49033 335.19258,421.49033 339.79477,421.49033 346.69805,424.55846 347.46508,418.42221 348.23211,412.28596 348.99914,403.08159 351.30024,396.94534 353.60133,390.80909 356.66945,381.60472 356.66945,375.46847 356.66945,369.33222 355.13539,353.22457 355.13539,344.78722 355.13539,336.34988 355.13539,315.64004 355.90242,308.73676 356.66945,301.83348 350.53321,145.35914 350.53321,145.35914 L 362.03867,116.97899 342.8629,92.433996 Z"
 id="path10949"
 inkscape:connector-curvature="0" />
</svg>
