<?xml version="1.0" encoding="UTF-8" standalone="no"?>
<!-- Created with Inkscape (http://www.inkscape.org/) -->

<svg
 xmlns:dc="http://purl.org/dc/elements/1.1/"
 xmlns:cc="http://creativecommons.org/ns#"
 xmlns:rdf="http://www.w3.org/1999/02/22-rdf-syntax-ns#"
 xmlns:svg="http://www.w3.org/2000/svg"
 xmlns="http://www.w3.org/2000/svg"
 xmlns:sodipodi="http://sodipodi.sourceforge.net/DTD/sodipodi-0.dtd"
 xmlns:inkscape="http://www.inkscape.org/namespaces/inkscape"
 version="1.1"
 id="svg9789"
 width="537"
 height="471"
 viewBox="0 0 537 471"
 sodipodi:docname="00015.svg"
 inkscape:version="0.92.4 (5da689c313, 2019-01-14)">
<metadata
 id="metadata9795">
<rdf:RDF>
<cc:Work
 rdf:about="">
<dc:format>image/svg+xml</dc:format>
<dc:type
 rdf:resource="http://purl.org/dc/dcmitype/StillImage" />
<dc:title></dc:title>
</cc:Work>
</rdf:RDF>
</metadata>
<defs
 id="defs9793" />
<sodipodi:namedview
 pagecolor="#ffffff"
 bordercolor="#666666"
 borderopacity="1"
 objecttolerance="10"
 gridtolerance="10"
 guidetolerance="10"
 inkscape:pageopacity="0"
 inkscape:pageshadow="2"
 inkscape:window-width="1920"
 inkscape:window-height="1017"
 id="namedview9791"
 showgrid="false"
 inkscape:zoom="1.4172161"
 inkscape:cx="340.97465"
 inkscape:cy="232.97878"
 inkscape:window-x="-8"
 inkscape:window-y="-8"
 inkscape:window-maximized="1"
 inkscape:current-layer="svg9789" />
<path
 style="fill:#000000;stroke:none;stroke-width:1px;stroke-linecap:butt;stroke-linejoin:miter;stroke-opacity:1;fill-opacity:1"
 d="M 75.500128,34.933839 72.677693,46.929187 85.37865,61.746969 100.19643,146.42001 C 100.19643,146.42001 114.30861,154.18171 113.603,148.53684 112.89739,142.89197 112.89739,51.868448 112.89739,51.868448 L 106.54691,37.756274 82.556215,37.050665 Z"
 id="path10342"
 inkscape:connector-curvature="0" />
<path
 style="fill:#000000;stroke:none;stroke-width:1px;stroke-linecap:butt;stroke-linejoin:miter;stroke-opacity:1;fill-opacity:1"
 d="M 127.71517,87.148881 159.46756,77.975968 C 159.46756,77.975968 165.81804,70.919882 170.7573,70.919882 175.69656,70.919882 189.10312,74.447925 189.10312,74.447925 L 176.40217,98.43862 152.41147,102.67227 123.48152,97.027403 Z"
 id="path10344"
 inkscape:connector-curvature="0" />
<path
 style="fill:#000000;stroke:none;stroke-width:1px;stroke-linecap:butt;stroke-linejoin:miter;stroke-opacity:1;fill-opacity:1"
 d="M 23.990695,173.23314 4.9392607,178.1724 2.8224347,188.05092 6.3504781,203.57431 20.462652,213.45283 23.990695,209.21918 33.163608,216.98088 41.630912,237.44353 35.280434,310.12122 35.986042,332.7007 47.98139,341.87361 62.799172,333.40631 149.58904,312.94366 174.28534,315.76609 178.51899,312.23805 157.35073,308.0044 137.59369,301.65392 50.803825,321.41096 50.098216,256.49496 49.392607,240.26596 28.929956,188.05092 26.107521,177.46679 Z"
 id="path10346"
 inkscape:connector-curvature="0" />
<path
 style="fill:#000000;stroke:none;stroke-width:1px;stroke-linecap:butt;stroke-linejoin:miter;stroke-opacity:1;fill-opacity:1"
 d="M 51.509433,156.29853 55.037477,173.93875 69.14965,177.46679 90.31791,168.29388 112.89739,159.12097 163.70121,155.59292 171.46291,161.23779 C 171.46291,161.23779 175.69656,161.23779 172.87413,166.88266 170.05169,172.52753 165.81804,310.12122 165.81804,310.12122 L 167.22926,336.22874 174.28534,343.28483 178.51899,312.23805 C 178.51899,312.23805 169.34608,300.2427 170.7573,296.71466 172.16852,293.18661 184.86947,174.64436 184.86947,174.64436 184.86947,174.64436 191.92556,161.9434 193.33678,157.70975 194.74799,153.4761 154.5283,135.83588 154.5283,135.83588 L 141.12173,145.00879 Z"
 id="path10348"
 inkscape:connector-curvature="0" />
<path
 style="fill:#000000;stroke:none;stroke-width:1px;stroke-linecap:butt;stroke-linejoin:miter;stroke-opacity:1;fill-opacity:1"
 d="M 113.603,173.93875 115.01421,200.04627 88.906693,250.14448 73.383302,264.96227 C 73.383302,264.96227 72.677693,270.60714 60.682346,274.84079 48.686999,279.07444 43.747738,281.19127 43.747738,281.19127 43.747738,281.19127 52.215042,291.06979 57.859911,288.95296 63.504781,286.83614 74.088911,284.0137 75.500128,281.19127 76.911345,278.36883 100.19643,257.90618 103.01887,250.14448 105.8413,242.38279 112.89739,231.09305 118.54226,222.62575 124.18713,214.15844 133.36004,202.1631 133.36004,202.1631 L 138.2993,195.10701 Z"
 id="path10350"
 inkscape:connector-curvature="0" />
<path
 style="fill:#000000;stroke:none;stroke-width:1px;stroke-linecap:butt;stroke-linejoin:miter;stroke-opacity:1;fill-opacity:1"
 d="M 68.444041,205.69114 87.495476,232.50427 C 87.495476,232.50427 94.551562,231.79866 103.72448,241.67718 112.89739,251.5557 142.53295,267.07909 142.53295,267.07909 L 158.05634,270.60714 165.81804,276.25201 C 165.81804,276.25201 167.22926,269.19592 163.70121,264.96227 160.17317,260.72862 157.35073,255.78935 157.35073,255.78935 157.35073,255.78935 146.7666,255.08375 141.82734,250.85009 136.88808,246.61644 144.64978,249.43888 134.06565,245.20522 123.48152,240.97157 135.47687,251.5557 123.48152,240.26596 111.48617,228.97622 103.01887,223.33136 103.01887,223.33136 Z"
 id="path10352"
 inkscape:connector-curvature="0" />
<path
 style="fill:#000000;stroke:none;stroke-width:1px;stroke-linecap:butt;stroke-linejoin:miter;stroke-opacity:1;fill-opacity:1"
 d="M 47.275781,228.97622 66.327215,226.8594 C 66.327215,226.8594 74.088911,219.0977 71.972085,226.15379 69.855259,233.20988 69.14965,243.79401 69.14965,243.79401 L 57.154303,240.97157 Z"
 id="path10354"
 inkscape:connector-curvature="0" />
<path
 style="fill:#000000;stroke:none;stroke-width:1px;stroke-linecap:butt;stroke-linejoin:miter;stroke-opacity:1;fill-opacity:1"
 d="M 151.00026,192.28457 148.17782,209.21918 139.71052,227.56501 C 139.71052,227.56501 138.2993,237.44353 146.061,231.09305 153.82269,224.74257 159.46756,216.27527 159.46756,216.27527 159.46756,216.27527 168.64047,212.74723 168.64047,208.51357 168.64047,204.27992 166.52365,192.99018 166.52365,192.99018 L 151.70586,188.05092 150.29465,195.81262 Z"
 id="path10356"
 inkscape:connector-curvature="0" />
<path
 style="fill:#000000;stroke:none;stroke-width:1px;stroke-linecap:butt;stroke-linejoin:miter;stroke-opacity:1;fill-opacity:1"
 d="M 86.084258,185.9341 95.96278,184.52288 113.603,173.93875 125.59834,177.46679 C 125.59834,177.46679 131.94882,178.87801 130.5376,186.6397 129.12639,194.4014 128.42078,200.04627 128.42078,200.04627 Z"
 id="path10358"
 inkscape:connector-curvature="0" />
<path
 style="fill:#000000;stroke:none;stroke-width:1px;stroke-linecap:butt;stroke-linejoin:miter;stroke-opacity:1;fill-opacity:1"
 d="M 92.434736,274.84079 105.13569,289.65857 115.71982,280.48566 119.24787,274.84079 98.079606,272.72396 Z"
 id="path10360"
 inkscape:connector-curvature="0" />
<path
 style="fill:#000000;stroke:none;stroke-width:1px;stroke-linecap:butt;stroke-linejoin:miter;stroke-opacity:1;fill-opacity:1"
 d="M 213.09382,139.36392 220.14991,147.83123 230.73404,164.76584 231.43965,207.10236 223.67795,252.26131 208.86017,292.48101 C 208.86017,292.48101 211.6826,301.65392 206.74334,310.12122 201.80408,318.58853 168.64047,348.9297 168.64047,348.9297 168.64047,348.9297 141.12173,361.63066 138.2993,363.04187 135.47687,364.45309 149.58904,367.27552 149.58904,367.27552 149.58904,367.27552 152.41147,365.86431 160.17317,362.33626 167.93486,358.80822 181.34143,351.75213 184.86947,348.9297 188.39752,346.10726 195.4536,338.34557 199.68725,334.11192 203.92091,329.87827 218.03308,308.0044 218.73869,303.06514 219.4443,298.12587 223.67795,277.66322 223.67795,277.66322 L 239.20134,214.15844 C 239.20134,214.15844 243.43499,186.6397 244.1406,180.99483 244.84621,175.34997 244.1406,151.35927 244.1406,151.35927 L 246.25743,145.7144 C 246.25743,145.7144 249.07986,146.42001 244.84621,138.65831 240.61256,130.89662 238.49573,128.07418 238.49573,128.07418 L 219.4443,125.25175 215.21065,126.66297 Z"
 id="path10362"
 inkscape:connector-curvature="0" />
<path
 style="fill:#000000;stroke:none;stroke-width:1px;stroke-linecap:butt;stroke-linejoin:miter;stroke-opacity:1;fill-opacity:1"
 d="M 263.89764,121.72371 256.84156,137.2471 C 256.84156,137.2471 254.72473,134.42466 261.78082,144.30318 268.8369,154.18171 283.65469,157.70975 283.65469,157.70975 L 300.5893,145.7144 317.5239,137.2471 365.50529,128.07418 431.1269,115.37323 433.94933,109.72836 419.13155,101.96666 397.25768,96.321794 373.26699,108.31714 325.99121,121.0181 C 325.99121,121.0181 293.53321,130.89662 287.18273,130.89662 280.83225,130.89662 269.54251,123.84053 269.54251,123.84053 Z"
 id="path10364"
 inkscape:connector-curvature="0" />
<path
 style="fill:#000000;stroke:none;stroke-width:1px;stroke-linecap:butt;stroke-linejoin:miter;stroke-opacity:1;fill-opacity:1"
 d="M 381.02868,48.340404 400.78573,63.863795 428.30447,75.859142 431.83251,67.391838 428.30447,58.924534 427.59886,53.279665 385.96794,38.461883 Z"
 id="path10366"
 inkscape:connector-curvature="0" />
<path
 style="fill:#000000;stroke:none;stroke-width:1px;stroke-linecap:butt;stroke-linejoin:miter;stroke-opacity:1;fill-opacity:1"
 d="M 281.53786,22.232883 268.8369,28.583361 C 268.8369,28.583361 273.07056,54.690882 276.5986,53.279665 280.12664,51.868448 296.35564,49.046013 296.35564,49.046013 L 325.99121,84.326447 330.22486,144.30318 380.32308,258.61179 435.36055,336.93435 491.80925,410.31765 523.56164,418.07935 530.61772,416.66813 528.5009,400.43913 520.03359,393.38305 529.91211,331.99509 512.97751,360.21944 498.15972,363.04187 471.34659,356.69139 390.2016,255.78935 346.45386,134.42466 335.16412,55.396491 299.88369,21.527275 Z"
 id="path10368"
 inkscape:connector-curvature="0" />
<path
 style="fill:#000000;stroke:none;stroke-width:1px;stroke-linecap:butt;stroke-linejoin:miter;stroke-opacity:1;fill-opacity:1"
 d="M 246.25743,204.98553 C 246.25743,204.98553 259.66399,196.51823 264.60325,195.10701 269.54251,193.69579 285.77151,188.75653 285.77151,188.75653 L 299.17808,183.81727 C 299.17808,183.81727 305.52856,179.58362 316.81829,183.11166 328.10803,186.6397 333.7529,188.75653 333.7529,188.75653 L 322.46316,197.22383 C 322.46316,197.22383 306.93977,203.57431 301.2949,207.10236 295.65003,210.6304 264.60325,219.0977 264.60325,219.0977 L 239.20134,214.15844 Z"
 id="path10370"
 inkscape:connector-curvature="0" />
<path
 style="fill:#000000;stroke:none;stroke-width:1px;stroke-linecap:butt;stroke-linejoin:miter;stroke-opacity:1;fill-opacity:1"
 d="M 213.09382,251.5557 234.96769,284.71931 249.07986,343.28483 C 249.07986,343.28483 253.31351,360.92505 256.13595,348.9297 258.95838,336.93435 260.3696,330.58387 260.3696,317.17731 260.3696,303.77074 258.25277,298.83148 256.84156,291.7754 255.43034,284.71931 256.84156,286.13053 253.31351,279.78005 249.78547,273.42957 249.78547,269.19592 249.78547,269.19592 249.78547,269.19592 223.67795,252.26131 223.67795,252.26131 L 210.27138,245.20522 Z"
 id="path10372"
 inkscape:connector-curvature="0" />
<path
 style="fill:#000000;stroke:none;stroke-width:1px;stroke-linecap:butt;stroke-linejoin:miter;stroke-opacity:1;fill-opacity:1"
 d="M 251.9023,250.14448 270.24812,262.13983 C 270.24812,262.13983 286.47712,267.7847 288.59395,264.96227 290.71077,262.13983 296.35564,255.78935 299.88369,255.08375 303.41173,254.37814 311.87903,254.37814 311.87903,254.37814 311.87903,254.37814 323.87438,266.37348 323.16877,270.60714 322.46316,274.84079 319.64073,289.65857 319.64073,289.65857 L 321.05195,302.35953 323.16877,307.29879 C 323.16877,307.29879 328.10803,310.12122 330.22486,300.2427 332.34169,290.36418 336.57534,279.07444 336.57534,269.90153 336.57534,260.72862 332.34169,257.90618 337.28095,252.26131 342.22021,246.61644 340.80899,248.73327 343.63142,245.20522 346.45386,241.67718 351.39312,229.68183 351.39312,229.68183 351.39312,229.68183 347.86508,227.56501 340.10338,224.74257 332.34169,221.92014 312.58464,218.39209 312.58464,218.39209 312.58464,218.39209 311.87903,225.44818 311.17343,228.27062 310.46782,231.09305 309.0566,243.0884 309.0566,243.0884 Z"
 id="path10374"
 inkscape:connector-curvature="0" />
<path
 style="fill:#000000;stroke:none;stroke-width:1px;stroke-linecap:butt;stroke-linejoin:miter;stroke-opacity:1;fill-opacity:1"
 d="M 239.20134,311.53244 289.29956,300.94831 C 289.29956,300.94831 305.52855,298.12587 313.29025,300.2427 321.05195,302.35953 331.63608,299.53709 331.63608,299.53709 L 323.16877,307.29879 243.43499,331.28948 Z"
 id="path10376"
 inkscape:connector-curvature="0" />
<path
 style="fill:#000000;stroke:none;stroke-width:1px;stroke-linecap:butt;stroke-linejoin:miter;stroke-opacity:1;fill-opacity:1"
 d="M 413.48668,148.53684 C 412.07547,152.06488 386.67355,231.09305 386.67355,231.09305 L 363.38847,288.95296 340.10338,329.87827 311.17343,341.168 C 311.17343,341.168 289.29956,336.22874 294.94443,340.4624 300.5893,344.69605 321.75756,348.9297 321.75756,348.9297 L 342.22021,341.87361 388.08477,272.72396 416.30912,206.39675 Z"
 id="path10378"
 inkscape:connector-curvature="0" />
</svg>
