<?xml version="1.0" encoding="UTF-8" standalone="no"?>
<!-- Created with Inkscape (http://www.inkscape.org/) -->

<svg
 xmlns:dc="http://purl.org/dc/elements/1.1/"
 xmlns:cc="http://creativecommons.org/ns#"
 xmlns:rdf="http://www.w3.org/1999/02/22-rdf-syntax-ns#"
 xmlns:svg="http://www.w3.org/2000/svg"
 xmlns="http://www.w3.org/2000/svg"
 xmlns:sodipodi="http://sodipodi.sourceforge.net/DTD/sodipodi-0.dtd"
 xmlns:inkscape="http://www.inkscape.org/namespaces/inkscape"
 version="1.1"
 id="svg10951"
 width="560"
 height="520"
 viewBox="0 0 560 520"
 sodipodi:docname="00017.svg"
 inkscape:version="0.92.4 (5da689c313, 2019-01-14)">
<metadata
 id="metadata10957">
<rdf:RDF>
<cc:Work
 rdf:about="">
<dc:format>image/svg+xml</dc:format>
<dc:type
 rdf:resource="http://purl.org/dc/dcmitype/StillImage" />
<dc:title></dc:title>
</cc:Work>
</rdf:RDF>
</metadata>
<defs
 id="defs10955" />
<sodipodi:namedview
 pagecolor="#ffffff"
 bordercolor="#666666"
 borderopacity="1"
 objecttolerance="10"
 gridtolerance="10"
 guidetolerance="10"
 inkscape:pageopacity="0"
 inkscape:pageshadow="2"
 inkscape:window-width="1920"
 inkscape:window-height="1017"
 id="namedview10953"
 showgrid="false"
 inkscape:zoom="1.2836708"
 inkscape:cx="217.55005"
 inkscape:cy="243.43205"
 inkscape:window-x="-8"
 inkscape:window-y="-8"
 inkscape:window-maximized="1"
 inkscape:current-layer="svg10951" />
<path
 style="fill:#000000;stroke:none;stroke-width:1px;stroke-linecap:butt;stroke-linejoin:miter;stroke-opacity:1;fill-opacity:1"
 d="M 76.016949,73.813559 95.847458,78.220339 110.16949,100.25424 126.69492,103.55932 C 126.69492,103.55932 132.20339,92.542373 132.20339,88.135593 132.20339,83.728813 139.91525,88.135593 132.20339,80.423729 124.49153,72.711864 115.67797,65 115.67797,65 L 81.525424,63.898305 Z"
 id="path11504"
 inkscape:connector-curvature="0" />
<path
 style="fill:#000000;stroke:none;stroke-width:1px;stroke-linecap:butt;stroke-linejoin:miter;stroke-opacity:1;fill-opacity:1"
 d="M 46.271186,156.44068 57.288136,195 76.016949,212.62712 74.915254,230.25424 92.542373,218.13559 103.55932,199.40678 C 103.55932,199.40678 89.237288,182.88136 84.830509,177.37288 80.423729,171.86441 62.79661,157.54237 62.79661,157.54237 Z"
 id="path11506"
 inkscape:connector-curvature="0" />
<path
 style="fill:#000000;stroke:none;stroke-width:1px;stroke-linecap:butt;stroke-linejoin:miter;stroke-opacity:1;fill-opacity:1"
 d="M 132.20339,264.40678 78.220339,356.94915 57.288136,341.52542 53.983051,320.59322 51.779661,362.45763 76.016949,386.69492 91.440678,397.71186 C 91.440678,397.71186 111.27119,395.50847 111.27119,388.89831 111.27119,382.28814 113.47458,385.59322 113.47458,375.67797 113.47458,365.76271 132.20339,264.40678 132.20339,264.40678 Z"
 id="path11508"
 inkscape:connector-curvature="0" />
<path
 style="fill:#000000;stroke:none;stroke-width:1px;stroke-linecap:butt;stroke-linejoin:miter;stroke-opacity:1;fill-opacity:1"
 d="M 258.89831,12.118644 260,28.644068 266.61017,50.677966 228.05085,96.949152 C 228.05085,96.949152 246.77966,98.050847 250.08475,93.644068 253.38983,89.237288 271.01695,66.101695 271.01695,66.101695 L 284.23729,38.559322 Z"
 id="path11510"
 inkscape:connector-curvature="0" />
<path
 style="fill:#000000;stroke:none;stroke-width:1px;stroke-linecap:butt;stroke-linejoin:miter;stroke-opacity:1;fill-opacity:1"
 d="M 290.84746,52.881356 345.9322,45.169491 361.35593,30.847457"
 id="path11512"
 inkscape:connector-curvature="0" />
<path
 style="fill:#000000;stroke:none;stroke-width:1px;stroke-linecap:butt;stroke-linejoin:miter;stroke-opacity:1;fill-opacity:1"
 d="M 361.35593,30.847457 359.90537,22.208811 C 359.90537,22.208811 370.81159,33.115034 376.2647,35.452082 381.71781,37.789129 396.51912,47.916337 396.51912,47.916337 396.51912,47.916337 396.51912,48.695353 387.94994,55.706496 379.38077,62.71764 352.89422,75.181895 348.22013,82.193038 343.54603,89.204182 314.72244,101.66844 314.72244,101.66844 L 307.7113,91.54123 C 307.7113,91.54123 327.1867,79.855991 333.41882,74.402879 339.65095,68.949767 352.89422,51.811416 352.89422,51.811416 L 306.93228,71.286815 C 306.93228,71.286815 304.59523,75.960911 294.46803,73.623863 284.34082,71.286815 283.5618,74.402879 280.44574,65.054688 277.32968,55.706496 290.84746,52.881356 290.84746,52.881356 V 52.881356 52.881356"
 id="path11514"
 inkscape:connector-curvature="0" />
<path
 style="fill:#000000;stroke:none;stroke-width:1px;stroke-linecap:butt;stroke-linejoin:miter;stroke-opacity:1;fill-opacity:1"
 d="M 207.99726,118.80679 199.42808,129.71301 214.22939,142.17727 232.92577,149.18841 246.94805,139.84022 296.02606,121.92285 C 296.02606,121.92285 324.07063,121.14384 331.86079,117.24876 339.65095,113.35368 372.36962,106.34253 372.36962,106.34253 372.36962,106.34253 392.62404,111.79564 398.07715,111.01663 403.53026,110.23761 423.78467,110.23761 423.78467,110.23761 423.78467,110.23761 433.91188,96.994341 420.66861,96.215325 407.42534,95.436309 386.39191,94.657293 386.39191,94.657293 L 331.08178,105.56352 Z"
 id="path11516"
 inkscape:connector-curvature="0" />
<path
 style="fill:#000000;stroke:none;stroke-width:1px;stroke-linecap:butt;stroke-linejoin:miter;stroke-opacity:1;fill-opacity:1"
 d="M 217.34545,169.44282 233.70478,194.37133 212.67135,308.10766 189.30087,365.75484 93.481914,447.55152 40.508829,471.70101 77.122579,468.58495 123.08452,444.43545 193.19595,388.34631 210.33431,340.82633 227.47266,285.5162 C 227.47266,285.5162 228.25167,245.00737 229.8097,240.33328 231.36774,235.65918 249.2851,194.37133 249.2851,194.37133 V 181.90708 L 234.4838,168.66381 Z"
 id="path11518"
 inkscape:connector-curvature="0" />
<path
 style="fill:#000000;stroke:none;stroke-width:1px;stroke-linecap:butt;stroke-linejoin:miter;stroke-opacity:1;fill-opacity:1"
 d="M 278.10869,159.31562 299.14212,185.80216 306.15327,216.9628 V 229.42705 L 260.97034,259.02966 C 260.97034,259.02966 258.63329,238.77524 254.73821,252.79753 250.84313,266.81982 250.06412,274.60998 250.06412,274.60998 L 264.86542,277.72604 281.22476,267.59883 344.32505,206.83559 313.94343,222.41591 311.60638,202.16149 320.95457,178.012 Z"
 id="path11520"
 inkscape:connector-curvature="0" />
<path
 style="fill:#000000;stroke:none;stroke-width:1px;stroke-linecap:butt;stroke-linejoin:miter;stroke-opacity:1;fill-opacity:1"
 d="M 268.7605,185.02314 C 267.20247,190.47625 256.29625,213.06772 256.29625,213.06772 L 276.55066,220.07886 295.24704,199.82445 312.38539,192.8133 C 312.38539,192.8133 320.95457,178.012 320.95457,178.012 L 276.55066,192.8133 Z"
 id="path11522"
 inkscape:connector-curvature="0" />
<path
 style="fill:#000000;stroke:none;stroke-width:1px;stroke-linecap:butt;stroke-linejoin:miter;stroke-opacity:1;fill-opacity:1"
 d="M 350.55718,140.61923 353.67324,176.45397 354.45226,219.29984 384.83388,230.98508 415.2155,233.32213 436.24893,222.41591 C 436.24893,222.41591 442.48106,222.41591 436.24893,218.52083 430.0168,214.62575 417.55255,212.2887 417.55255,212.2887 L 390.28699,221.63689 375.48569,216.9628 H 364.57946 L 372.36962,149.96743 Z"
 id="path11524"
 inkscape:connector-curvature="0" />
<path
 style="fill:#000000;stroke:none;stroke-width:1px;stroke-linecap:butt;stroke-linejoin:miter;stroke-opacity:1;fill-opacity:1"
 d="M 380.9388,168.66381 408.20436,158.5366 412.09944,155.42054 433.91188,161.65266 V 174.89594 Z"
 id="path11526"
 inkscape:connector-curvature="0" />
<path
 style="fill:#000000;stroke:none;stroke-width:1px;stroke-linecap:butt;stroke-linejoin:miter;stroke-opacity:1;fill-opacity:1"
 d="M 338.87194,253.57655 335.75587,268.37785 278.88771,290.96931 C 278.88771,290.96931 280.44574,295.64341 287.45688,297.98046 294.46803,300.3175 319.39654,287.85325 319.39654,287.85325 L 338.09292,280.8421 334.97686,303.43357 331.08178,322.90897 341.20898,319.7929 348.22013,312.78176 C 348.22013,312.78176 348.99914,302.65455 355.23127,294.08538 361.4634,285.5162 366.13749,274.60998 369.25356,273.05195 372.36962,271.49391 367.69553,260.58769 367.69553,260.58769 Z"
 id="path11528"
 inkscape:connector-curvature="0" />
<path
 style="fill:#000000;stroke:none;stroke-width:1px;stroke-linecap:butt;stroke-linejoin:miter;stroke-opacity:1;fill-opacity:1"
 d="M 203.32316,322.12995 199.42808,340.04732 225.13561,348.61649 229.03069,352.51157 246.94805,344.72141 303.0372,321.35093 321.73359,317.45585 408.20436,306.54963 C 408.20436,306.54963 483.7689,308.88668 488.443,309.66569 493.11709,310.44471 532.06789,326.02503 532.06789,326.02503 L 546.09018,325.24601 550.76427,315.89782 546.09018,304.21258 532.06789,301.09652 512.59249,288.63226 494.67513,292.52734 408.20436,297.20144 301.47917,312.00274 229.03069,330.69913 Z"
 id="path11530"
 inkscape:connector-curvature="0" />
<path
 style="fill:#000000;stroke:none;stroke-width:1px;stroke-linecap:butt;stroke-linejoin:miter;stroke-opacity:1;fill-opacity:1"
 d="M 246.16904,371.98697 265.64444,387.56729 C 265.64444,387.56729 282.78279,400.03154 285.11984,404.70564 287.45688,409.37974 292.13098,436.64529 292.91,442.09841 293.68901,447.55152 299.92114,465.46888 299.92114,465.46888 L 309.26933,456.89971 298.36311,401.58958 C 298.36311,401.58958 296.80508,388.34631 296.80508,383.67221 296.80508,378.99811 298.36311,375.88205 298.36311,375.88205 L 252.40117,359.52272 246.16904,376.66107 Z"
 id="path11532"
 inkscape:connector-curvature="0" />
<path
 style="fill:#000000;stroke:none;stroke-width:1px;stroke-linecap:butt;stroke-linejoin:miter;stroke-opacity:1;fill-opacity:1"
 d="M 299.92114,357.18567 352.11521,346.27944 380.15978,340.82633"
 id="path11534"
 inkscape:connector-curvature="0" />
<path
 style="fill:#000000;stroke:none;stroke-width:1px;stroke-linecap:butt;stroke-linejoin:miter;stroke-opacity:1;fill-opacity:1"
 d="M 380.15978,340.82633 401.97223,327.58306 423.78467,349.39551 418.33156,361.85976 C 418.33156,361.85976 412.09944,368.87091 408.98337,376.66107 405.86731,384.45123 398.07715,403.14761 398.07715,406.26367 398.07715,409.37974 393.40305,432.75021 393.40305,432.75021 L 387.17093,439.76136 370.03257,438.20333 376.2647,406.26367 392.62404,348.61649 319.39654,374.32402 299.92114,357.18567 V 357.18567"
 id="path11536"
 inkscape:connector-curvature="0" />
<path
 style="fill:#000000;stroke:none;stroke-width:1px;stroke-linecap:butt;stroke-linejoin:miter;stroke-opacity:1;fill-opacity:1"
 d="M 290.57295,425.73907 334.19784,418.72793 370.03257,412.4958 H 404.30928 L 410.5414,420.28596 V 436.64529 L 313.16441,441.31939 309.26933,456.89971 299.92114,465.46888 Z"
 id="path11538"
 inkscape:connector-curvature="0" />
</svg>
