<?xml version="1.0" encoding="UTF-8" standalone="no"?>
<!-- Created with Inkscape (http://www.inkscape.org/) -->

<svg
 xmlns:dc="http://purl.org/dc/elements/1.1/"
 xmlns:cc="http://creativecommons.org/ns#"
 xmlns:rdf="http://www.w3.org/1999/02/22-rdf-syntax-ns#"
 xmlns:svg="http://www.w3.org/2000/svg"
 xmlns="http://www.w3.org/2000/svg"
 xmlns:sodipodi="http://sodipodi.sourceforge.net/DTD/sodipodi-0.dtd"
 xmlns:inkscape="http://www.inkscape.org/namespaces/inkscape"
 version="1.1"
 id="svg8629"
 width="520"
 height="543"
 viewBox="0 0 520 543"
 sodipodi:docname="00013.svg"
 inkscape:version="0.92.4 (5da689c313, 2019-01-14)">
<metadata
 id="metadata8635">
<rdf:RDF>
<cc:Work
 rdf:about="">
<dc:format>image/svg+xml</dc:format>
<dc:type
 rdf:resource="http://purl.org/dc/dcmitype/StillImage" />
<dc:title></dc:title>
</cc:Work>
</rdf:RDF>
</metadata>
<defs
 id="defs8633" />
<sodipodi:namedview
 pagecolor="#ffffff"
 bordercolor="#666666"
 borderopacity="1"
 objecttolerance="10"
 gridtolerance="10"
 guidetolerance="10"
 inkscape:pageopacity="0"
 inkscape:pageshadow="2"
 inkscape:window-width="1920"
 inkscape:window-height="1017"
 id="namedview8631"
 showgrid="false"
 inkscape:zoom="0.86924494"
 inkscape:cx="230.86618"
 inkscape:cy="216.28348"
 inkscape:window-x="-8"
 inkscape:window-y="-8"
 inkscape:window-maximized="1"
 inkscape:current-layer="svg8629" />
<path
 style="fill:#000000;stroke:none;stroke-width:1px;stroke-linecap:butt;stroke-linejoin:miter;stroke-opacity:1;fill-opacity:1"
 d="M 156.1867,56.543493 178.15046,102.09795 198.48727,152.53324 208.24894,162.29491 C 208.24894,162.29491 222.89144,161.48143 219.63755,156.6006 216.38366,151.71977 213.94325,130.56948 213.94325,130.56948 L 207.43547,97.217114 C 207.43547,97.217114 203.36811,62.237799 196.86033,62.237799 190.35255,62.237799 156.1867,56.543493 156.1867,56.543493 Z"
 id="path9182"
 inkscape:connector-curvature="0" />
<path
 style="fill:#000000;stroke:none;stroke-width:1px;stroke-linecap:butt;stroke-linejoin:miter;stroke-opacity:1;fill-opacity:1"
 d="M 209.06241,86.641972 164.32143,96.403641 122.02086,102.09795 123.64781,111.04614 139.91726,136.26379 161.06754,150.90629 182.21782,140.33115 C 182.21782,140.33115 213.94325,130.56948 213.94325,130.56948 Z"
 id="path9184"
 inkscape:connector-curvature="0" />
<path
 style="fill:#000000;stroke:none;stroke-width:1px;stroke-linecap:butt;stroke-linejoin:miter;stroke-opacity:1;fill-opacity:1"
 d="M 261.93812,7.7351473 274.95368,37.020154 244.8552,130.56948 231.83964,155.78713 248.10909,158.22755 270.88632,108.60573 295.29049,54.916548 309.11952,38.647099 307.49257,24.004596 262.75159,-1.2130493 Z"
 id="path9186"
 inkscape:connector-curvature="0" />
<path
 style="fill:#000000;stroke:none;stroke-width:1px;stroke-linecap:butt;stroke-linejoin:miter;stroke-opacity:1;fill-opacity:1"
 d="M 266.81895,90.709334 304.23869,89.895862 351.42009,78.507248 376.63773,84.201555 301.79827,111.85962 296.91743,116.74045 270.07284,108.60573 Z"
 id="path9188"
 inkscape:connector-curvature="0" />
<path
 style="fill:#000000;stroke:none;stroke-width:1px;stroke-linecap:butt;stroke-linejoin:miter;stroke-opacity:1;fill-opacity:1"
 d="M 109.81878,171.2431 104.12447,181.81825 127.71517,194.02033 150.4924,196.46075 152.93282,190.76644 C 152.93282,190.76644 225.33186,172.05658 228.58575,170.42963 231.83964,168.80269 327.01591,169.61616 327.01591,169.61616 L 357.11439,173.68352 359.55481,169.61616 335.15064,137.07726 318.88119,147.6524 C 318.88119,147.6524 248.10909,154.16019 231.83964,155.78713 215.57019,157.41407 152.93282,173.68352 152.93282,173.68352 L 131.78253,176.93741 Z"
 id="path9190"
 inkscape:connector-curvature="0" />
<path
 style="fill:#000000;stroke:none;stroke-width:1px;stroke-linecap:butt;stroke-linejoin:miter;stroke-opacity:1;fill-opacity:1"
 d="M 93.549328,232.25354 122.02086,252.59035 135.03642,294.07744 134.22295,325.80286 155.37323,326.61634 C 155.37323,326.61634 152.93282,289.1966 152.93282,283.5023 152.93282,277.80799 143.98462,242.0152 143.98462,242.0152 L 136.66337,237.13437 107.37836,220.05145 Z"
 id="path9192"
 inkscape:connector-curvature="0" />
<path
 style="fill:#000000;stroke:none;stroke-width:1px;stroke-linecap:butt;stroke-linejoin:miter;stroke-opacity:1;fill-opacity:1"
 d="M 143.98462,215.98409 161.06754,232.25354 C 161.06754,232.25354 178.15046,233.06701 183.03129,230.62659 187.91213,228.18617 228.58575,217.61103 235.09353,215.17061 241.60131,212.7302 277.3941,208.66284 277.3941,208.66284 L 298.54438,207.03589 302.61174,225.74576 C 302.61174,225.74576 301.79827,263.97896 295.29049,263.97896 288.78271,263.97896 283.90187,283.5023 283.90187,283.5023 L 296.10396,298.1448 314.81383,257.47118 335.96411,228.99965 333.52369,206.22242 319.69466,196.46075 Z"
 id="path9194"
 inkscape:connector-curvature="0" />
<path
 style="fill:#000000;stroke:none;stroke-width:1px;stroke-linecap:butt;stroke-linejoin:miter;stroke-opacity:1;fill-opacity:1"
 d="M 202.55463,187.51255 218.82408,222.49187 224.51839,311.16036 C 224.51839,311.16036 222.89144,384.37288 219.63755,385.99982 216.38366,387.62677 203.36811,493.37818 203.36811,493.37818 L 204.99505,506.39374 213.12977,505.58027 219.63755,463.2797 236.72047,335.56453 239.16089,232.25354 246.48214,228.99965 242.41478,200.52811 Z"
 id="path9196"
 inkscape:connector-curvature="0" />
<path
 style="fill:#000000;stroke:none;stroke-width:1px;stroke-linecap:butt;stroke-linejoin:miter;stroke-opacity:1;fill-opacity:1"
 d="M 167.57532,258.28465 166.76185,270.48674 180.59088,280.24841 271.69979,259.09813 259.4977,249.33646 239.97436,246.89604 181.40435,264.79243 Z"
 id="path9198"
 inkscape:connector-curvature="0" />
<path
 style="fill:#000000;stroke:none;stroke-width:1px;stroke-linecap:butt;stroke-linejoin:miter;stroke-opacity:1;fill-opacity:1"
 d="M 130.96906,311.16036 292.0366,288.38313 296.10396,298.1448 134.22295,325.80286 Z"
 id="path9200"
 inkscape:connector-curvature="0" />
<path
 style="fill:#000000;stroke:none;stroke-width:1px;stroke-linecap:butt;stroke-linejoin:miter;stroke-opacity:1;fill-opacity:1"
 d="M -2.4404173,367.28996 15.455976,387.62677 36.606259,400.64233 53.68918,388.44024 188.7256,343.69926 292.0366,330.6837 416.49788,354.2744 437.64816,348.58009 432.76733,333.93759 392.09371,316.85467 378.26468,320.10856 276.58062,321.7355 104.93794,355.90134 C 104.93794,355.90134 31.725424,376.23815 28.471535,374.61121 25.217645,372.98426 0.81347242,367.28996 0.81347242,367.28996 Z"
 id="path9202"
 inkscape:connector-curvature="0" />
<path
 style="fill:#000000;stroke:none;stroke-width:1px;stroke-linecap:butt;stroke-linejoin:miter;stroke-opacity:1;fill-opacity:1"
 d="M 123.64781,381.93246 139.10378,405.52316 148.05198,441.31595 V 466.53359 L 162.69448,473.04137 C 162.69448,473.04137 170.82921,478.73568 170.01574,471.41443 169.20226,464.09318 163.50796,447.01025 163.50796,447.01025 V 412.03094 C 163.50796,412.03094 170.82921,413.65789 165.94837,405.52316 161.06754,397.38844 124.46128,374.61121 124.46128,374.61121 Z"
 id="path9204"
 inkscape:connector-curvature="0" />
<path
 style="fill:#000000;stroke:none;stroke-width:1px;stroke-linecap:butt;stroke-linejoin:miter;stroke-opacity:1;fill-opacity:1"
 d="M 171.64268,366.47648 175.71004,381.11899 187.09866,385.99982 292.85007,368.10343 274.14021,451.07762 280.64799,459.21234 289.59618,455.95845 318.06772,371.35732 312.37341,364.03607 283.90187,346.95315 234.28006,362.40912 Z"
 id="path9206"
 inkscape:connector-curvature="0" />
<path
 style="fill:#000000;stroke:none;stroke-width:1px;stroke-linecap:butt;stroke-linejoin:miter;stroke-opacity:1;fill-opacity:1"
 d="M 187.09866,411.21747 C 187.09866,411.21747 192.79296,425.85997 198.48727,423.41955 204.18158,420.97914 209.06241,419.35219 209.06241,419.35219 L 244.04173,414.47136 257.05728,407.96358 258.68423,399.82885 249.73603,396.57496 C 249.73603,396.57496 243.22825,397.38844 236.72047,399.01538 230.2127,400.64233 187.09866,411.21747 187.09866,411.21747 Z"
 id="path9208"
 inkscape:connector-curvature="0" />
<path
 style="fill:#000000;stroke:none;stroke-width:1px;stroke-linecap:butt;stroke-linejoin:miter;stroke-opacity:1;fill-opacity:1"
 d="M 148.05198,455.14498 212.3163,446.19678 260.31117,440.50248 295.29049,446.19678 289.59618,455.95845 C 289.59618,455.95845 289.59619,447.82373 274.14021,451.07762 258.68423,454.33151 162.69448,473.04137 162.69448,473.04137 Z"
 id="path9210"
 inkscape:connector-curvature="0" />
<path
 style="fill:#000000;stroke:none;stroke-width:1px;stroke-linecap:butt;stroke-linejoin:miter;stroke-opacity:1;fill-opacity:1"
 d="M 82.160714,495.8186 115.51308,525.10361 124.46128,530.79791 150.4924,515.34194 247.29562,503.95332 307.49257,514.52847 331.89675,522.66319 348.97967,511.27458 344.09883,502.32638 312.37341,482.80304 C 312.37341,482.80304 277.3941,484.42999 272.51326,487.68388 267.63243,490.93777 187.91213,493.37818 187.91213,493.37818 L 116.32656,503.95332 88.668494,490.12429 Z"
 id="path9212"
 inkscape:connector-curvature="0" />
</svg>
