<?xml version="1.0" encoding="UTF-8" standalone="no"?>
<!-- Created with Inkscape (http://www.inkscape.org/) -->

<svg
 xmlns:dc="http://purl.org/dc/elements/1.1/"
 xmlns:cc="http://creativecommons.org/ns#"
 xmlns:rdf="http://www.w3.org/1999/02/22-rdf-syntax-ns#"
 xmlns:svg="http://www.w3.org/2000/svg"
 xmlns="http://www.w3.org/2000/svg"
 xmlns:sodipodi="http://sodipodi.sourceforge.net/DTD/sodipodi-0.dtd"
 xmlns:inkscape="http://www.inkscape.org/namespaces/inkscape"
 version="1.1"
 id="svg5662"
 width="512"
 height="512"
 viewBox="0 0 512 512"
 sodipodi:docname="00008.svg"
 inkscape:version="0.92.4 (5da689c313, 2019-01-14)">
<metadata
 id="metadata5668">
<rdf:RDF>
<cc:Work
 rdf:about="">
<dc:format>image/svg+xml</dc:format>
<dc:type
 rdf:resource="http://purl.org/dc/dcmitype/StillImage" />
<dc:title></dc:title>
</cc:Work>
</rdf:RDF>
</metadata>
<defs
 id="defs5666" />
<sodipodi:namedview
 pagecolor="#ffffff"
 bordercolor="#666666"
 borderopacity="1"
 objecttolerance="10"
 gridtolerance="10"
 guidetolerance="10"
 inkscape:pageopacity="0"
 inkscape:pageshadow="2"
 inkscape:window-width="1920"
 inkscape:window-height="1017"
 id="namedview5664"
 showgrid="false"
 inkscape:zoom="1.3037281"
 inkscape:cx="544.18953"
 inkscape:cy="218.80185"
 inkscape:window-x="-8"
 inkscape:window-y="-8"
 inkscape:window-maximized="1"
 inkscape:current-layer="svg5662" />
<path
 style="fill:#000000;stroke:none;stroke-width:1px;stroke-linecap:butt;stroke-linejoin:miter;stroke-opacity:1;fill-opacity:1"
 d="M 43.720772,106.24056 75.936077,134.62071 102.78217,148.42727 176.41715,105.47352 296.074,80.161499 384.28257,74.02525 376.61226,64.053846 337.49368,44.878069 323.68712,58.684629 80.538264,112.3768 Z"
 id="path6215"
 inkscape:connector-curvature="0" />
<path
 style="fill:#000000;stroke:none;stroke-width:1px;stroke-linecap:butt;stroke-linejoin:miter;stroke-opacity:1;fill-opacity:1"
 d="M 182.5534,31.07151 C 197.54838,44.283861 227.89538,64.393788 223.97308,66.354939 L 226.27417,188.31288 C 226.27417,188.31288 220.13792,197.51726 222.43901,205.18757 224.74011,212.85788 227.80823,216.69303 236.24557,217.46006 244.68292,218.22709 251.5862,214.39194 251.5862,214.39194 L 249.2851,112.3768 263.85869,90.132903 C 262.47197,71.06175 259.42053,51.633869 243.91589,29.537447 219.32075,27.84866 179.87813,20.535632 182.5534,31.07151 Z"
 id="path6217"
 inkscape:connector-curvature="0"
 sodipodi:nodetypes="ccccsccccc" />
<path
 style="fill:#000000;stroke:none;stroke-width:1px;stroke-linecap:butt;stroke-linejoin:miter;stroke-opacity:1;fill-opacity:1"
 d="M 187.92262,77.093375 191.75777,104.70649 C 191.75777,104.70649 179.02477,142.72766 152.61675,180.51142 132.21994,209.69452 102.89157,238.2718 69.799829,251.97646"
 id="path6219"
 inkscape:connector-curvature="0"
 sodipodi:nodetypes="ccsc" />
<path
 style="fill:#000000;stroke:none;stroke-width:1px;stroke-linecap:butt;stroke-linejoin:miter;stroke-opacity:1;fill-opacity:1"
 d="M 69.799829,251.97646 56.135593,256 67.254237,260.0678 133.69492,224.54237 C 133.69492,224.54237 199.86441,151.32203 200.13559,131.52542 200.40678,111.72881 202.30509,110.64407 202.30509,110.64407 L 205.83051,94.101694 205.01695,79.18644 187.92262,77.093375 V 77.093375 77.093375"
 id="path6223"
 inkscape:connector-curvature="0" />
<path
 style="fill:#000000;stroke:none;stroke-width:1px;stroke-linecap:butt;stroke-linejoin:miter;stroke-opacity:1;fill-opacity:1"
 d="M 250.81917,129.25149 304.89486,140.37344 333.27501,138.07235 335.19258,129.635 C 335.19258,129.635 373.16062,144.59211 383.51554,166.06898 393.87046,187.54585 378.52984,182.94367 378.52984,182.94367 183.8147,116.39397 292.67979,151.98636 247.36753,137.30531 Z"
 id="path6225"
 inkscape:connector-curvature="0"
 sodipodi:nodetypes="ccccsccc" />
<path
 style="fill:#000000;stroke:none;stroke-width:1px;stroke-linecap:butt;stroke-linejoin:miter;stroke-opacity:1;fill-opacity:1"
 d="M 168.36332,219.37764 C 156.20123,230.76274 158.38664,235.99891 153.40622,244.30615 158.9122,258.94769 168.35605,271.33902 181.01934,281.89067 L 189.45668,282.65771 228.95878,242.77209 245.44995,214.77545 179.86879,240.471 172.58199,232.03365 173.34903,219.37764 Z"
 id="path6227"
 inkscape:connector-curvature="0"
 sodipodi:nodetypes="cccccccccc" />
<path
 style="fill:#000000;stroke:none;stroke-width:1px;stroke-linecap:butt;stroke-linejoin:miter;stroke-opacity:1;fill-opacity:1"
 d="M 252.73674,200.96889 275.36416,187.16234 319.46845,205.57108 319.85196,220.52819 298.37509,230.88311 270.76197,279.58958 282.0339,293.42373 287.45763,342.23729 C 290.00812,371.71327 291.63128,400.85205 283.11864,426.30508 269.72703,450.49182 255.62543,472.54861 239.18644,487.59322 L 180.0678,472.94915 162.16949,444.20339 158.91525,431.72881 195.79661,451.79661 225.62712,456.13559 250.0339,440.40678 269.01695,400.81356 273.89831,349.83051 262.50847,311.86441 252.20339,292.33898 231.59322,281.49153 234.30508,277.15254 251.11864,280.40678 273.35593,225.08475 276.61017,204.47458 245.44995,214.77545 Z"
 id="path6229"
 inkscape:connector-curvature="0"
 sodipodi:nodetypes="ccccccccccccccccccccccccccc" />
<path
 style="fill:#000000;stroke:none;stroke-width:1px;stroke-linecap:butt;stroke-linejoin:miter;stroke-opacity:1;fill-opacity:1"
 d="M 92.745763,323.25424 92.20339,339.52542 C 92.20339,339.52542 99.79661,347.11864 105.22034,354.16949 110.64407,361.22034 116.09505,364.18411 116.09505,364.18411 131.64028,353.45519 143.13315,351.69084 151.86441,340.61017 L 188.20339,329.76271 260.88136,317.83051 C 290.3554,312.03922 314.85457,310.72531 334.1017,314.13824 351.33347,317.4803 366.83178,321.81291 376.94915,329.22034 376.94915,329.22034 394.84746,335.72881 396.47458,331.9322 398.1017,328.13559 399.18644,327.59322 400.81356,324.33898 402.44068,321.08475 398.1017,310.23729 398.1017,310.23729 L 392.67797,304.27119 373.15254,293.42373 352.54237,283.11864 337.89831,278.77966 337.35593,288.54237 C 276.42938,295.16007 215.50282,302.84999 154.57627,320.54237 L 116.61017,335.18644 Z"
 id="path6231"
 inkscape:connector-curvature="0"
 sodipodi:nodetypes="ccsccccccscccccccccc" />
</svg>
