<?xml version="1.0" encoding="UTF-8" standalone="no"?>
<!-- Created with Inkscape (http://www.inkscape.org/) -->

<svg
 xmlns:dc="http://purl.org/dc/elements/1.1/"
 xmlns:cc="http://creativecommons.org/ns#"
 xmlns:rdf="http://www.w3.org/1999/02/22-rdf-syntax-ns#"
 xmlns:svg="http://www.w3.org/2000/svg"
 xmlns="http://www.w3.org/2000/svg"
 xmlns:sodipodi="http://sodipodi.sourceforge.net/DTD/sodipodi-0.dtd"
 xmlns:inkscape="http://www.inkscape.org/namespaces/inkscape"
 version="1.1"
 id="svg4518"
 width="512"
 height="511"
 viewBox="0 0 512 511"
 sodipodi:docname="00006.svg"
 inkscape:version="0.92.4 (5da689c313, 2019-01-14)">
<metadata
 id="metadata4524">
<rdf:RDF>
<cc:Work
 rdf:about="">
<dc:format>image/svg+xml</dc:format>
<dc:type
 rdf:resource="http://purl.org/dc/dcmitype/StillImage" />
<dc:title></dc:title>
</cc:Work>
</rdf:RDF>
</metadata>
<defs
 id="defs4522" />
<sodipodi:namedview
 pagecolor="#ffffff"
 bordercolor="#666666"
 borderopacity="1"
 objecttolerance="10"
 gridtolerance="10"
 guidetolerance="10"
 inkscape:pageopacity="0"
 inkscape:pageshadow="2"
 inkscape:window-width="1920"
 inkscape:window-height="1017"
 id="namedview4520"
 showgrid="false"
 inkscape:zoom="1.3062795"
 inkscape:cx="242.97096"
 inkscape:cy="294.91672"
 inkscape:window-x="-8"
 inkscape:window-y="-8"
 inkscape:window-maximized="1"
 inkscape:current-layer="svg4518" />
<path
 style="fill:#000000;stroke:none;stroke-width:1px;stroke-linecap:butt;stroke-linejoin:miter;stroke-opacity:1;fill-opacity:1"
 d="M 177.60365,54.742345 178.36918,89.191329 197.50751,92.253461 267.93654,79.239401 338.36558,81.536 313.10299,194.06935 307.74426,211.67661 319.22725,223.92513 C 319.22725,223.92513 329.17918,217.03534 332.24131,207.08341 335.30344,197.13148 345.25537,144.3097 348.3175,142.77864 351.37964,141.24757 371.28349,117.51605 371.28349,117.51605 L 381.23542,80.004934 C 381.23542,80.004934 355.97283,33.307422 326.88258,43.259351 297.79233,53.211279 313.10299,54.742345 313.10299,54.742345 L 208.9905,61.632142 Z"
 id="path5071"
 inkscape:connector-curvature="0" />
<path
 style="fill:#000000;stroke:none;stroke-width:1px;stroke-linecap:butt;stroke-linejoin:miter;stroke-opacity:1;fill-opacity:1"
 d="M 140.85807,81.536 131.67167,115.98498 146.2168,132.06118 163.05852,152.73057 168.41726,203.25574 160.76193,218.5664 C 160.76193,218.5664 167.65172,222.39407 171.47939,225.4562 175.30705,228.51833 185.25898,226.22173 185.25898,226.22173 L 184.49345,176.46209 181.43132,142.0131 158.46533,112.92285 147.74786,86.89473 Z"
 id="path5073"
 inkscape:connector-curvature="0" />
<path
 style="fill:#000000;stroke:none;stroke-width:1px;stroke-linecap:butt;stroke-linejoin:miter;stroke-opacity:1;fill-opacity:1"
 d="M 205.92837,131.29564 C 199.03857,128.99904 192.91431,141.24757 192.91431,141.24757 192.91431,141.24757 204.39731,156.55823 208.9905,160.3859 213.5837,164.21356 232.72203,167.27569 235.78416,163.44803 238.84629,159.62036 280.9506,140.48204 280.9506,140.48204 L 298.55786,132.06118 284.77827,122.10925 C 284.77827,122.10925 261.04675,123.64031 257.98461,125.17138 254.92248,126.70245 205.92837,131.29564 205.92837,131.29564 Z"
 id="path5077"
 inkscape:connector-curvature="0" />
<path
 style="fill:#000000;stroke:none;stroke-width:1px;stroke-linecap:butt;stroke-linejoin:miter;stroke-opacity:1;fill-opacity:1"
 d="M 222.7701,65.459807 236.54969,98.377725 244.97055,184.88295 249.56375,210.91107 265.63994,207.84894 257.21908,57.038944 Z"
 id="path5079"
 inkscape:connector-curvature="0" />
<path
 style="fill:#000000;stroke:none;stroke-width:1px;stroke-linecap:butt;stroke-linejoin:miter;stroke-opacity:1;fill-opacity:1"
 d="M 168.41726,203.25574 C 168.41726,203.25574 193.67984,213.9732 199.80411,210.91107 205.92837,207.84894 291.66806,185.64848 291.66806,185.64848 L 313.10299,194.06935 334.53791,201.72468 319.22725,223.92513 300.08893,209.38001 185.25898,226.22173 160.76193,218.5664 Z"
 id="path5081"
 inkscape:connector-curvature="0" />
<path
 style="fill:#000000;stroke:none;stroke-width:1px;stroke-linecap:butt;stroke-linejoin:miter;stroke-opacity:1;fill-opacity:1"
 d="M 44.400913,275.21584 C 44.400913,275.21584 34.448984,288.2299 30.621319,289.76097 26.793654,291.29204 19.138324,290.5265 22.200456,295.88523 25.262588,301.24396 56.64944,330.33422 56.64944,330.33422 L 78.084364,314.25802 126.31294,292.05757 290.90253,262.20178 410.32568,264.49838 C 410.32568,264.49838 432.52613,287.46437 466.20958,287.46437 499.89303,287.46437 499.1275,272.15371 489.17557,269.85711 479.22364,267.56051 461.61639,246.89112 453.19552,246.89112 444.77466,246.89112 293.19913,251.48432 293.19913,251.48432 L 244.20502,230.81493 225.83223,253.01539 213.5837,263.73285 55.883907,291.29204 Z"
 id="path5083"
 inkscape:connector-curvature="0" />
<path
 style="fill:#000000;stroke:none;stroke-width:1px;stroke-linecap:butt;stroke-linejoin:miter;stroke-opacity:1;fill-opacity:1"
 d="M 225.83223,253.01539 260.28121,273.68478 264.10888,397.70112 C 264.10888,397.70112 228.12883,377.03173 235.01862,383.92153 241.90842,390.81132 268.70208,437.50883 268.70208,437.50883 H 279.41954 L 287.8404,390.81132 279.41954,296.65077 304.68213,249.95325 244.20502,230.81493 Z"
 id="path5085"
 inkscape:connector-curvature="0" />
<path
 style="fill:#000000;stroke:none;stroke-width:1px;stroke-linecap:butt;stroke-linejoin:miter;stroke-opacity:1;fill-opacity:1"
 d="M 149.27893,318.85122 C 135.34569,315.89292 131.87667,358.73491 133.20274,359.42447 141.9341,366.61495 149.44621,373.92735 153.1066,381.62493 164.44907,378.14462 164.97724,383.16127 169.94832,384.68706 168.33364,370.86566 172.87835,360.12395 177.22088,349.28116 L 164.97236,332.43944 C 161.7419,327.19609 156.55707,320.55284 149.27893,318.85122 Z"
 id="path5087"
 inkscape:connector-curvature="0"
 sodipodi:nodetypes="ccccccc" />
<path
 style="fill:#000000;stroke:none;stroke-width:1px;stroke-linecap:butt;stroke-linejoin:miter;stroke-opacity:1;fill-opacity:1"
 d="M 338.36558,292.8231 C 334.58609,309.16453 352.96094,319.46386 363.62816,331.86528 367.04732,345.76637 371.08132,358.86048 385.82862,357.8934 L 401.90481,360.19 400.37375,330.33422 397.31162,313.49249 C 377.66294,300.57989 358.01426,292.06338 338.36558,292.8231 Z"
 id="path5089"
 inkscape:connector-curvature="0"
 sodipodi:nodetypes="ccccccc" />
</svg>
