<?xml version="1.0" encoding="UTF-8" standalone="no"?>
<!-- Created with Inkscape (http://www.inkscape.org/) -->

<svg
 xmlns:dc="http://purl.org/dc/elements/1.1/"
 xmlns:cc="http://creativecommons.org/ns#"
 xmlns:rdf="http://www.w3.org/1999/02/22-rdf-syntax-ns#"
 xmlns:svg="http://www.w3.org/2000/svg"
 xmlns="http://www.w3.org/2000/svg"
 xmlns:sodipodi="http://sodipodi.sourceforge.net/DTD/sodipodi-0.dtd"
 xmlns:inkscape="http://www.inkscape.org/namespaces/inkscape"
 version="1.1"
 id="svg11622"
 width="511"
 height="511"
 viewBox="0 0 511 511"
 sodipodi:docname="00001.svg"
 inkscape:version="0.92.4 (5da689c313, 2019-01-14)">
<metadata
 id="metadata11628">
<rdf:RDF>
<cc:Work
 rdf:about="">
<dc:format>image/svg+xml</dc:format>
<dc:type
 rdf:resource="http://purl.org/dc/dcmitype/StillImage" />
<dc:title></dc:title>
</cc:Work>
</rdf:RDF>
</metadata>
<defs
 id="defs11626" />
<sodipodi:namedview
 pagecolor="#ffffff"
 bordercolor="#666666"
 borderopacity="1"
 objecttolerance="10"
 gridtolerance="10"
 guidetolerance="10"
 inkscape:pageopacity="0"
 inkscape:pageshadow="2"
 inkscape:window-width="1920"
 inkscape:window-height="1017"
 id="namedview11624"
 showgrid="false"
 inkscape:zoom="1.3062795"
 inkscape:cx="186.1906"
 inkscape:cy="302.00751"
 inkscape:window-x="-8"
 inkscape:window-y="-8"
 inkscape:window-maximized="1"
 inkscape:current-layer="svg11622" />
<path
 style="fill:#000000;stroke:none;stroke-width:1px;stroke-linecap:butt;stroke-linejoin:miter;stroke-opacity:1;fill-opacity:1"
 d="M 79.573093,97.43644 C 79.573093,97.43644 89.316737,109.34534 90.940678,111.51059 92.564619,113.67585 99.060381,135.8697 99.060381,135.8697 L 101.22564,210.02966 C 101.22564,210.02966 83.362288,344.81674 83.903602,349.68856 84.444915,354.56038 79.03178,372.96504 79.03178,372.96504 L 69.829449,367.55191 70.370763,378.37818 76.866526,400.03072 88.775424,410.31568 98.519068,411.93962 99.060381,339.94492 108.80403,190.54237 113.67585,153.19174 124.50212,115.8411 83.362288,91.481991 Z"
 id="path12175"
 inkscape:connector-curvature="0" />
<path
 style="fill:#000000;stroke:none;stroke-width:1px;stroke-linecap:butt;stroke-linejoin:miter;stroke-opacity:1;fill-opacity:1"
 d="M 94.188559,58.461864 106.63877,74.701271 117.46504,82.279661 C 117.46504,82.279661 158.06356,69.288135 162.39407,66.581567 166.72458,63.875 166.72458,66.581567 166.72458,66.581567 L 161.31144,125.58475 162.93538,133.16314 C 162.93538,133.16314 161.31144,151.02648 165.64195,148.86123 169.97246,146.69597 191.625,129.91525 191.625,129.91525 L 195.4142,102.84958 C 195.4142,102.84958 195.95551,76.325211 198.66208,75.242584 201.36864,74.159957 217.60805,55.213983 217.60805,55.213983 L 211.11229,43.846398 174.84428,36.268008 Z"
 id="path12177"
 inkscape:connector-curvature="0" />
<path
 style="fill:#000000;stroke:none;stroke-width:1px;stroke-linecap:butt;stroke-linejoin:miter;stroke-opacity:1;fill-opacity:1"
 d="M 135.32839,106.63877 151.02648,100.14301 166.72458,92.564618 194.87288,84.444915 C 194.87288,84.444915 199.7447,82.820974 198.66208,88.775423 197.57945,94.729872 195.4142,102.84958 195.4142,102.84958 L 148.86123,118.00636 C 148.86123,118.00636 137.49364,122.87818 135.32839,116.92373 133.16314,110.96928 131.5392,107.7214 131.5392,107.7214 Z"
 id="path12179"
 inkscape:connector-curvature="0" />
<path
 style="fill:#000000;stroke:none;stroke-width:1px;stroke-linecap:butt;stroke-linejoin:miter;stroke-opacity:1;fill-opacity:1"
 d="M 124.50212,141.28284 121.25424,153.19174 129.91525,169.43114 138.57627,170.51377 166.72458,146.69597 220.85593,109.88665 239.80191,95.271186 151.02648,139.11758 Z"
 id="path12181"
 inkscape:connector-curvature="0" />
<path
 style="fill:#000000;stroke:none;stroke-width:1px;stroke-linecap:butt;stroke-linejoin:miter;stroke-opacity:1;fill-opacity:1"
 d="M 245.21504,52.507415 261.45445,64.957627 272.82203,102.84958 C 272.82203,102.84958 273.90466,127.75 271.19809,130.99788 268.49153,134.24576 265.24364,135.8697 265.24364,140.74153 265.24364,145.61335 274.44597,158.06356 274.44597,158.06356 L 286.35487,152.10911 C 286.35487,152.10911 344.27542,151.02648 346.98199,149.40254 349.68856,147.7786 351.85381,145.07203 351.85381,145.07203 L 345.89936,134.78708 C 345.89936,134.78708 342.65148,129.91525 339.4036,129.91525 336.15572,129.91525 289.60275,142.90678 289.60275,142.90678 L 295.01589,109.34534 C 295.01589,109.34534 295.01589,108.80402 294.47458,102.30826 293.93326,95.8125 295.5572,74.701271 295.5572,74.701271 L 298.26377,67.664194 288.52013,59.003177 256.58263,43.846398 Z"
 id="path12183"
 inkscape:connector-curvature="0" />
<path
 style="fill:#000000;stroke:none;stroke-width:1px;stroke-linecap:butt;stroke-linejoin:miter;stroke-opacity:1;fill-opacity:1"
 d="M 306.38347,20.569915 302.59428,27.606991 311.2553,53.590042 328.03602,56.29661 364.84534,41.681144 390.28708,42.222457 381.62606,100.68432 C 381.62606,100.68432 390.82839,394.61758 388.12182,396.24153 385.41525,397.86547 382.16737,403.2786 380.00212,402.73729 377.83686,402.19597 364.30403,394.07627 364.30403,394.07627 L 357.26695,395.1589 366.46928,411.93962 C 366.46928,411.93962 367.01059,439.0053 369.71716,441.71186 372.42373,444.41843 379.46081,449.83157 379.46081,449.83157 L 385.95657,460.65784 C 385.95657,460.65784 403.2786,466.61229 403.81992,463.90572 404.36123,461.19915 405.44386,461.74047 407.60911,455.2447 409.77436,448.74894 417.35275,428.17903 417.35275,424.38983 417.35275,420.60064 420.05932,416.81144 418.9767,411.93962 417.89407,407.0678 417.35275,408.15042 413.56356,400.03072 409.77436,391.91102 408.69174,382.16737 408.69174,379.4608 408.69174,376.75424 401.11335,116.38241 401.11335,116.38241 401.11335,116.38241 417.35275,60.085805 420.05932,58.461864 422.76589,56.837923 430.34428,39.515889 430.34428,39.515889 L 417.35275,31.937499 394.61759,11.367584 385.41525,11.908898 369.17585,31.396186 326.41208,32.478813 Z"
 id="path12185"
 inkscape:connector-curvature="0" />
<path
 style="fill:#000000;stroke:none;stroke-width:1px;stroke-linecap:butt;stroke-linejoin:miter;stroke-opacity:1;fill-opacity:1"
 d="M 297.18114,97.977754 C 297.18114,97.977754 315.04449,96.353813 319.91631,93.647245 324.78814,90.940678 344.81674,79.573093 344.81674,79.573093 L 351.85381,87.151483 333.99047,99.601694 324.24682,112.05191 C 324.24682,112.05191 315.58581,114.75847 312.87924,110.96928 310.17267,107.18008 293.93326,99.601694 293.93326,99.601694 Z"
 id="path12187"
 inkscape:connector-curvature="0" />
<path
 style="fill:#000000;stroke:none;stroke-width:1px;stroke-linecap:butt;stroke-linejoin:miter;stroke-opacity:1;fill-opacity:1"
 d="M 150.48517,183.5053 172.67903,204.07521 178.63347,205.69915 183.5053,193.79025 179.7161,184.58792 154.27436,175.92691 Z"
 id="path12189"
 inkscape:connector-curvature="0" />
<path
 style="fill:#000000;stroke:none;stroke-width:1px;stroke-linecap:butt;stroke-linejoin:miter;stroke-opacity:1;fill-opacity:1"
 d="M 216.52542,168.88983 233.30614,179.17479 231.14089,188.37712 239.26059,192.70763 C 239.26059,192.70763 251.16949,187.8358 251.16949,185.12924 251.16949,182.42267 252.79343,174.30297 252.79343,174.30297 L 246.83898,167.8072 229.51695,163.47669 Z"
 id="path12191"
 inkscape:connector-curvature="0" />
<path
 style="fill:#000000;stroke:none;stroke-width:1px;stroke-linecap:butt;stroke-linejoin:miter;stroke-opacity:1;fill-opacity:1"
 d="M 143.44809,233.30614 140.20021,242.50847 C 140.20021,242.50847 142.90678,257.12394 144.53072,259.28919 146.15466,261.45445 156.98093,263.07839 156.98093,263.07839 L 166.18326,256.04131 171.5964,249.00424 C 171.5964,249.00424 215.4428,227.35169 220.31462,226.81038 225.18644,226.26907 239.80191,220.31462 239.80191,220.31462 L 222.47987,213.81886 155.89831,241.96716 Z"
 id="path12193"
 inkscape:connector-curvature="0" />
<path
 style="fill:#000000;stroke:none;stroke-width:1px;stroke-linecap:butt;stroke-linejoin:miter;stroke-opacity:1;fill-opacity:1"
 d="M 128.83263,292.30932 C 128.83263,292.30932 137.49364,295.01589 138.57627,299.88771 139.6589,304.75953 136.95233,308.54873 135.32839,317.75106 133.70445,326.95339 134.78708,338.86229 134.78708,338.86229 L 147.7786,346.44068 C 147.7786,346.44068 166.72458,332.90784 168.34852,330.74258 169.97246,328.57733 178.09216,319.375 183.5053,316.12712 188.91843,312.87924 201.36864,303.13559 210.02966,297.18114 218.69068,291.22669 221.93856,288.52013 229.51695,284.73093 237.09534,280.94174 240.88453,276.06992 243.04979,274.44597 245.21504,272.82203 252.25212,268.49153 241.42585,269.57415 230.59958,270.65678 222.47987,272.28072 222.47987,272.28072 L 182.96398,299.3464 164.55932,312.87924 167.26589,298.26377 C 167.26589,298.26377 165.10064,291.22669 162.93538,291.22669 160.77013,291.22669 143.98941,287.97881 143.98941,287.97881 143.98941,287.97881 127.75,282.02436 125.58475,284.73093 123.41949,287.4375 128.83263,292.30932 128.83263,292.30932 Z"
 id="path12195"
 inkscape:connector-curvature="0" />
<path
 style="fill:#000000;stroke:none;stroke-width:1px;stroke-linecap:butt;stroke-linejoin:miter;stroke-opacity:1;fill-opacity:1"
 d="M 177.55085,244.67373 C 182.96398,246.83898 195.4142,250.08686 195.95551,252.79343 196.49682,255.5 205.69915,270.65678 202.99258,276.61123 200.28602,282.56568 200.28602,308.54873 198.66208,312.87924 197.03814,317.20975 195.95551,352.39513 190.00106,355.64301 184.04661,358.89089 180.25742,362.13877 178.09216,362.13877 175.92691,362.13877 175.92691,368.63453 178.09216,372.96504 180.25742,377.29555 188.37712,387.58051 188.37712,387.58051 188.37712,387.58051 194.33157,394.07627 194.33157,391.91102 194.33157,389.74576 204.61653,361.59746 204.61653,361.59746 204.61653,361.59746 204.61653,350.77119 206.24047,345.35805 207.86441,339.94492 214.36017,307.4661 214.36017,307.4661 L 216.52542,284.73093 223.5625,260.37182 226.26907,243.04979 211.6536,231.6822 193.24894,224.10381 168.34852,234.38877 Z"
 id="path12197"
 inkscape:connector-curvature="0" />
<path
 style="fill:#000000;stroke:none;stroke-width:1px;stroke-linecap:butt;stroke-linejoin:miter;stroke-opacity:1;fill-opacity:1"
 d="M 282.56568,182.96398 C 280.40042,184.04661 278.77648,211.6536 278.77648,211.6536 L 278.23517,228.43432 259.83051,244.13241 C 259.83051,244.13241 270.11547,257.12394 270.11547,260.91314 270.11547,264.70233 282.02436,244.13241 282.02436,244.13241 L 292.30932,233.30614 C 292.30932,233.30614 304.75953,228.97564 308.54873,228.97564 312.33792,228.97564 326.41208,225.72775 326.41208,225.72775 L 320.99894,246.83898 305.84216,256.04131 329.65996,251.16949 350.77119,237.63665 357.26695,224.10381 348.06462,210.57097 328.03602,204.61653 322.62288,215.4428 294.47458,223.02119 302.59428,211.6536 310.71398,198.12076 306.92479,185.67055 280.94174,177.00953 Z"
 id="path12199"
 inkscape:connector-curvature="0" />
<path
 style="fill:#000000;stroke:none;stroke-width:1px;stroke-linecap:butt;stroke-linejoin:miter;stroke-opacity:1;fill-opacity:1"
 d="M 273.90466,256.58263 282.56568,280.40042 C 282.56568,280.40042 279.3178,285.81356 278.77648,290.68538 278.23517,295.5572 266.86759,336.69703 264.16102,337.77966 261.45445,338.86229 252.79343,342.11017 252.25212,344.27542 251.71081,346.44068 249.00424,337.23835 249.00424,337.23835 249.00424,337.23835 248.46292,330.74258 246.29767,331.82521 244.13242,332.90784 238.17797,355.10169 238.17797,355.10169 L 248.46292,364.84534 259.2892,358.34958 273.90466,337.77966 293.39195,277.69386 290.68538,256.58263 285.27225,251.16949 277.69386,251.7108 Z"
 id="path12201"
 inkscape:connector-curvature="0" />
<path
 style="fill:#000000;stroke:none;stroke-width:1px;stroke-linecap:butt;stroke-linejoin:miter;stroke-opacity:1;fill-opacity:1"
 d="M 286.89619,284.73093 304.21822,287.97881 341.02754,303.67691 C 341.02754,303.67691 358.34958,313.42055 359.4322,318.29237 360.51483,323.16419 368.63453,337.23835 368.63453,337.23835 L 361.59746,351.3125 C 361.59746,351.3125 351.3125,356.18432 348.06462,351.3125 344.81674,346.44068 336.69703,327.4947 334.53178,325.32945 332.36653,323.16419 319.375,311.79661 319.375,311.79661 L 286.35487,289.06144 Z"
 id="path12203"
 inkscape:connector-curvature="0" />
</svg>
