<?xml version="1.0" standalone="no"?>
<!DOCTYPE svg PUBLIC "-//W3C//DTD SVG 1.1//EN" "http://www.w3.org/Graphics/SVG/1.1/DTD/svg11.dtd" >
<svg xmlns="http://www.w3.org/2000/svg" xmlns:xlink="http://www.w3.org/1999/xlink" version="1.1" viewBox="0 -52 256 256">
  <g transform="matrix(1 0 0 -1 0 204)">
   <path fill="currentColor"
d="M117 77q14 -12 11 -12q-2 -3 -2 -6q5 2 8 7q2 3 7 2q9 0 15 -1q2 -1 2 -2q0 -2 -2 -2q-6 -2 -10 -3q-15 -5 -20 -6v-17q6 1 21 4q2 0 6 1q4 0 7 4q4 6 10 1q2 -1 5 -3q5 -2 9 -3q4 -3 3 -6q-1 -4 -5 -2q-2 0 -4 1q-3 1 -7 4q-3 1 -6 1h-11q-6 -1 -10 -2q-11 -2 -17 -3
q1 -25 0 -35q0 -11 -2 -20q-3 -8 -14 -10q-10 -1 -23 3q-5 2 0 1q24 0 30 8q7 9 7 24q0 12 -1 17v12q-19 -4 -47 -12q-6 -4 -16 1q-5 1 1 2q9 -1 24 3q2 0 7 1q22 6 31 8q-1 2 -1 8q-1 5 -1 8q-10 -3 -17 -4q-8 -1 -15 0q-4 0 1 1q2 0 6 1q15 3 24 6q-2 12 -7 19
q-8 -4 -21 -7q-6 -2 0 2q21 8 34 17q8 3 3 8q-5 4 1 2q4 -2 7 -4q4 -1 6 -2l-1 1t0 2q-4 5 -9 9q-4 2 -4 6q-26 -5 -52 -13q-19 -6 -29 -1q-2 0 -2 1q1 1 3 2q6 0 14 1q5 1 9 2h2q15 2 25 6q-1 1 -1 3q-2 4 -1 10q-1 -1 -2 -1q-9 -2 -16 1q-4 0 1 2h4q8 1 13 3v16
q-19 -3 -23 0q-4 0 1 2q4 0 12 1q6 1 10 2q1 5 -2 10q-3 3 2 1q1 -1 1 -2q5 -3 5 -7q2 0 27 7q0 11 -3 15t2 2q5 -5 10 -6q1 -1 0 -3q-2 -3 -2 -6q3 1 6 4q2 4 15 0q2 -1 3 -3q0 -1 -2 -1q-3 -1 -5 -1q-11 -1 -17 -3q-2 -8 -1 -16q7 3 15 3q2 -1 3 -2q-1 -1 -3 -1
q-4 -1 -10 -3q-3 -2 -5 -2q0 -9 -1 -18q29 4 29 8q2 5 10 3q11 -3 22 -7q1 -5 -3 -6q-15 2 -23 2q-9 0 -34 -4q4 -3 10 -13q14 -25 31 -41q6 -8 23 -10q21 -2 32 -9q3 -2 3 -3t-2 0q-6 0 -34 3q-14 -1 -21 9q-13 13 -31 38q-2 2 -2 4q0 -1 -2 -2h-1l-4 -2q-12 -6 -22 -8z
M107 206q9 -2 18 -10q15 1 25 1h16q14 -4 19 -7q2 -3 8 -9q3 -3 5 -4q-1 -5 -4 -3q-6 3 -11 3q-11 0 -33 -3q-7 -1 0 2q14 3 32 9q1 0 1 1t-1 3q-11 9 -55 3q1 -5 4 -9q-1 -7 -4 -5h-1q-7 5 -11 6q-4 0 -8 2q-1 0 -1 1q-15 -3 -30 -9q-5 -1 -1 1q11 7 39 14q0 3 -8 8
q1 0 -1 2q-2 0 -1 2q1 1 3 1zM102 102q0 1 2 -1q4 -9 2 -9q-6 -3 -8 -7q-30 -46 -53 -62q-7 -5 -2 1q23 20 46 55l6 9q5 7 7 14zM104 144v-16q18 6 27 8v16q-23 -7 -27 -8zM128 113q-2 6 1 10v1q2 1 2 7q-2 -1 -5 -2q-15 -4 -22 -6q-1 -7 1 -14q0 -1 12 2q8 1 11 2zM70 175
q-1 -8 0 -8q3 1 2 -1q-2 -6 1 -12q1 -3 0 -4q-2 -1 -3 1q-5 7 -10 12q-3 1 0 4q2 1 5 5q1 2 2 3q0 2 1 2t2 -2z" />
  </g>

</svg>
